<?xml version="1.0" encoding="UTF-8"?>
<svg xmlns="http://www.w3.org/2000/svg" xmlns:xlink="http://www.w3.org/1999/xlink" width="173.0pt" height="64.0pt" viewBox="0 0 173.0 64.0" version="1.1">

<defs>
<polycosvg ratio="1.000000" offsetx="0.000000" offsety="0.000000" />
</defs><g>
<path style="fill:rgb(100.0%,100.0%,100.0%);fill-rule:evenodd;stroke:none;" name="Path No.0" d="M 0.0 64.0 C 57.671795 64.0 115.33354 64.0 173.0 64.0 C 173.0 42.656704 173.0 21.33263 173.0 0.0 C 115.326805 0.0 57.667862 0.0 0.0 0.0 C 0.0 21.340065 0.0 42.671177 0.0 64.0 Z M 6.0 29.25 C 6.5047274 29.641808 7.4695315 30.529709 8.336442 30.413874 C 9.574605 32.90639 9.14753 36.153286 9.5 39.0 C 9.605717 37.02547 9.753824 34.548027 9.858593 32.409622 C 10.033571 30.16378 10.094926 28.305698 12.0 27.5 C 11.394436 27.053246 10.308124 26.76631 10.149239 26.034061 C 9.892831 25.45692 9.651931 24.65632 9.5 24.0 C 9.21696 25.65622 9.024342 27.320547 9.0 29.0 C 8.004887 29.039295 6.9533024 28.943426 6.0 29.25 Z M 20.0 26.4375 C 20.359118 26.850351 20.647789 26.7395 21.0 26.5 C 20.649626 26.227404 20.331888 26.111198 20.0 26.4375 Z M 24.5 33.0 C 24.920855 31.994545 25.370295 30.191729 24.0 30.0 C 23.97669 31.032642 24.147594 32.04461 24.5 33.0 Z M 47.5 42.0 C 47.747932 40.782272 48.658474 38.30556 47.0 38.0 C 46.927757 39.37675 47.103485 40.694756 47.5 42.0 Z M 67.0 42.4375 C 67.359116 42.85035 67.64779 42.739502 68.0 42.5 C 67.64963 42.2274 67.33189 42.1112 67.0 42.4375 Z M 76.5 43.0 C 77.02568 41.395916 77.839134 39.338688 77.94465 37.476944 C 78.04447 35.853886 77.973976 33.768314 78.0 32.0 C 77.402885 32.0 76.64946 32.0 76.0 32.0 C 76.23945 35.23127 75.59389 39.54206 76.5 43.0 Z M 88.5 37.0 C 88.762924 33.62709 89.04716 30.256046 90.0 27.0 C 89.402885 27.0 88.64946 27.0 88.0 27.0 C 87.90507 30.349215 88.0739 33.69139 88.5 37.0 Z M 108.0 35.4375 C 108.359116 35.85035 108.64779 35.739502 109.0 35.5 C 108.64963 35.2274 108.33189 35.1112 108.0 35.4375 Z M 109.5 40.0 C 109.92085 38.994545 110.37029 37.19173 109.0 37.0 C 108.97669 38.032642 109.1476 39.04461 109.5 40.0 Z M 132.5 43.0 C 132.65852 40.237053 132.8733 37.509975 132.96747 34.751316 C 133.00778 33.209133 133.00087 31.668577 133.0 30.13122 C 132.91827 29.18464 133.04823 27.894993 132.5 27.0 C 131.89926 27.84213 132.07637 29.301811 132.0 30.483353 C 131.93767 34.67124 132.20663 38.837948 132.5 43.0 Z " />

<path style="fill:rgb(85.882355%,56.470592%,22.745098%);fill-rule:evenodd;stroke:none;" name="Path No.1" d="M 9.0 39.375 C 9.63151 40.235294 10.698417 41.161095 11.5 42.0 C 11.959233 41.066868 12.019822 40.0283 12.0 39.0 C 12.597117 39.0 13.350537 39.0 14.0 39.0 C 13.990043 38.28562 13.853634 37.615036 13.5 37.0 C 12.386342 38.345364 10.75602 39.15837 9.0 39.0 C 9.0 39.12132 9.0 39.26368 9.0 39.375 Z M 14.0 45.0 C 14.04155 43.960896 13.944397 42.944378 13.5 42.0 C 13.050665 42.420826 12.423854 42.883236 12.13756 43.506035 C 11.968074 44.76866 13.086541 45.014946 14.0 45.0 Z M 17.0 46.0 C 17.605883 46.0 18.342741 46.0 19.0 46.0 C 19.0 45.10357 19.0 43.97643 19.0 43.0 C 18.394117 43.0 17.657259 43.0 17.0 43.0 C 17.0 43.605885 17.0 44.34274 17.0 45.0 C 17.0 45.296825 17.0 45.67671 17.0 46.0 Z M 22.5 43.0 C 23.129316 42.112988 22.994055 41.02094 23.0 40.0 C 22.396128 40.0 21.650011 40.0 21.0 40.0 C 20.873552 41.377613 21.583138 42.218338 22.5 43.0 Z M 24.0 46.0 C 24.0 45.394115 24.0 44.65726 24.0 44.0 C 23.333345 44.0 22.656408 44.0 22.0 44.0 C 21.806461 45.549065 22.734217 46.15338 24.0 46.0 Z M 28.5 46.0 C 29.129316 45.112988 28.994055 44.02094 29.0 43.0 C 28.396128 43.0 27.650011 43.0 27.0 43.0 C 26.873552 44.377613 27.583138 45.218338 28.5 46.0 Z M 34.0 30.3125 C 34.378468 31.008018 35.40634 30.67272 36.0 30.5 C 35.403397 30.319855 34.667953 30.086329 34.0 30.0 C 34.0 30.116667 34.0 30.220833 34.0 30.3125 Z M 36.0 41.375 C 36.55036 42.180542 38.011528 41.921738 39.0 42.0 C 39.00726 41.08238 39.04024 39.860382 38.5 39.0 C 37.73388 39.88554 36.783096 40.517822 36.0 41.375 Z M 41.0 37.25 C 41.343746 38.186584 42.67349 37.98988 43.44524 38.0 C 43.604477 38.0 43.840763 38.0 44.0 38.0 C 44.0 37.394115 44.0 36.65726 44.0 36.0 C 42.855026 35.91526 41.797325 36.462368 41.0 37.25 Z M 45.0 34.25 C 45.343746 35.186584 46.67349 34.98988 47.44524 35.0 C 47.604477 35.0 47.840763 35.0 48.0 35.0 C 48.0 34.394115 48.0 33.65726 48.0 33.0 C 46.855026 32.91526 45.797325 33.462368 45.0 34.25 Z M 45.0 36.25 C 45.771534 37.693764 46.016033 39.260574 46.098392 40.884865 C 46.2795 42.54419 47.314747 43.913857 48.5 45.0 C 48.98268 43.83783 48.433285 42.185555 48.292156 40.758114 C 48.041336 39.197037 47.98344 37.574596 48.0 36.0 C 46.98764 36.0 46.007435 36.0 45.0 36.0 C 45.0 36.07176 45.0 36.17824 45.0 36.25 Z M 60.5 43.0 C 61.08322 42.075214 61.006283 40.93026 60.5 40.0 C 60.074566 40.431667 59.588238 40.82996 59.0 41.0 C 59.24287 41.826233 59.907288 42.39632 60.5 43.0 Z M 65.0 34.0 C 65.04155 32.960896 64.9444 31.944378 64.5 31.0 C 64.05067 31.420826 63.423855 31.883236 63.13756 32.506035 C 62.968075 33.76866 64.08654 34.014946 65.0 34.0 Z M 69.0 45.0 C 68.95661 44.045063 68.66346 43.19727 68.0 42.5 C 68.608795 41.75629 69.0498 40.9201 69.0 40.0 C 67.97273 40.043533 67.08438 40.356865 66.49639 41.145214 C 65.98787 41.9978 66.175964 42.826405 66.60714 43.56795 C 66.97134 44.46659 68.17113 44.877953 69.0 45.0 Z M 79.0 41.375 C 79.58528 42.4239 80.99554 43.247585 82.0 42.5 C 81.24932 41.599995 80.21998 40.87707 79.0 41.0 C 79.0 41.12132 79.0 41.26368 79.0 41.375 Z M 89.5 41.0 C 90.11512 39.393288 89.05479 37.113316 89.09917 35.141346 C 88.952255 33.10671 89.01469 31.036995 89.0 29.0 C 88.402885 29.0 87.64946 29.0 87.0 29.0 C 87.02818 33.184166 86.343704 38.021076 89.5 41.0 Z M 98.0 37.0 C 97.402885 37.0 96.64946 37.0 96.0 37.0 C 96.12502 38.130295 95.3073 39.031425 95.2743 40.10373 C 95.60821 40.814465 96.385956 40.863846 96.87659 40.392727 C 97.30982 39.827213 97.48828 39.14242 97.63414 38.463444 C 97.74441 38.022354 97.880295 37.478836 98.0 37.0 Z M 107.0 37.0 C 107.597115 37.0 108.35054 37.0 109.0 37.0 C 108.939514 34.198444 107.5413 31.67986 107.0 29.0 C 106.41523 29.0 105.63282 29.0 105.0 29.0 C 105.18276 30.388315 105.87142 31.630642 106.37361 32.91792 C 106.87017 34.20759 107.00327 35.640217 107.0 37.0 Z M 135.0 21.25 C 135.61365 22.446196 136.43007 23.971119 137.5 25.0 C 138.50444 23.467155 137.42615 21.866518 136.02837 21.196442 C 135.68962 21.085484 135.33862 21.034761 135.0 21.0 C 135.0 21.07176 135.0 21.17824 135.0 21.25 Z M 145.0 41.375 C 145.51608 42.301598 146.84183 43.043766 148.0 43.0 C 148.0 42.394115 148.0 41.65726 148.0 41.0 C 147.10507 41.0 145.97237 41.0 145.0 41.0 C 145.0 41.12132 145.0 41.26368 145.0 41.375 Z M 156.0 43.375 C 156.58528 44.4239 157.99554 45.247585 159.0 44.5 C 158.24931 43.599995 157.21999 42.87707 156.0 43.0 C 156.0 43.12132 156.0 43.26368 156.0 43.375 Z M 159.0 26.375 C 159.58528 27.423903 160.99554 28.247587 162.0 27.5 C 161.24931 26.599995 160.21999 25.877071 159.0 26.0 C 159.0 26.121319 159.0 26.263681 159.0 26.375 Z " />

<path style="fill:rgb(0.0%,40.0%,71.37255%);fill-rule:evenodd;stroke:none;" name="Path No.2" d="M 5.0 34.0 C 5.6058836 34.0 6.3427405 34.0 7.0 34.0 C 7.0 33.10357 7.0 31.97643 7.0 31.0 C 6.3941164 31.0 5.6572595 31.0 5.0 31.0 C 5.0 31.605883 5.0 32.34274 5.0 33.0 C 5.0 33.296825 5.0 33.67671 5.0 34.0 Z M 6.5 45.0 C 8.039399 43.755577 8.698947 41.891205 9.0 40.0 C 8.402883 40.0 7.649462 40.0 7.0 40.0 C 7.0003796 41.676453 5.2716455 43.119972 6.5 45.0 Z M 9.0 31.0 C 10.23831 30.992876 11.511742 31.234505 12.5 32.0 C 13.252071 31.247929 14.182748 30.317253 15.0 29.5 C 13.987136 28.501245 13.117434 27.349466 13.0 26.0 C 11.81024 26.0 10.289038 26.0 9.0 26.0 C 9.0 27.508808 9.0 29.365936 9.0 31.0 Z M 11.0 29.4375 C 11.359118 29.850351 11.647789 29.7395 12.0 29.5 C 11.649625 29.227404 11.331889 29.111198 11.0 29.4375 Z M 20.0 46.0 C 20.0 45.394115 20.0 44.65726 20.0 44.0 C 19.333345 44.0 18.656408 44.0 18.0 44.0 C 17.806461 45.549065 18.734217 46.15338 20.0 46.0 Z M 28.0 46.0 C 28.597118 46.0 29.350538 46.0 30.0 46.0 C 29.76784 43.885002 28.226324 42.105858 28.0 40.0 C 27.415232 40.0 26.632818 40.0 26.0 40.0 C 26.215267 41.907356 27.777496 43.910725 28.0 46.0 Z M 27.0 27.0 C 27.605883 27.0 28.342741 27.0 29.0 27.0 C 28.938168 25.725477 28.287601 24.28949 27.0 24.0 C 27.0 24.996183 27.0 26.009132 27.0 27.0 Z M 35.5 45.0 C 36.344814 44.155186 37.160194 43.339806 38.0 42.5 C 37.06395 42.042316 36.017864 41.976097 35.0 42.0 C 34.995644 42.90244 34.969704 44.128002 35.5 45.0 Z M 41.5 40.0 C 42.344814 39.155186 43.160194 38.339806 44.0 37.5 C 43.06395 37.042316 42.017864 36.976097 41.0 37.0 C 40.995644 37.90244 40.969704 39.128002 41.5 40.0 Z M 47.5 35.0 C 48.339634 34.160366 49.163483 33.336517 50.0 32.5 C 48.936035 31.935514 47.208233 32.48967 47.20805 33.739044 C 47.00492 34.210663 47.26497 34.640102 47.5 35.0 Z M 60.5 43.0 C 61.344814 42.155186 62.160194 41.339806 63.0 40.5 C 62.06395 40.042316 61.017864 39.976097 60.0 40.0 C 59.995644 40.90244 59.969704 42.128002 60.5 43.0 Z M 63.5 37.0 C 64.44723 36.2769 65.17056 35.252377 65.0 34.0 C 64.39412 34.0 63.65726 34.0 63.0 34.0 C 63.0 34.605885 63.0 35.34274 63.0 36.0 C 63.209076 36.267807 63.249496 36.694366 63.5 37.0 Z M 64.0 33.0 C 64.60588 33.0 65.34274 33.0 66.0 33.0 C 66.0 32.10357 66.0 30.97643 66.0 30.0 C 65.39412 30.0 64.65726 30.0 64.0 30.0 C 64.0 30.605883 64.0 31.342741 64.0 32.0 C 64.0 32.296825 64.0 32.67671 64.0 33.0 Z M 77.0 44.5 C 76.12292 43.869614 75.01783 44.004887 74.0 44.0 C 73.970985 44.544483 74.01235 45.060287 74.28691 45.497707 C 74.78266 46.01639 75.413284 45.873707 75.903854 45.529114 C 76.26045 45.25351 76.66355 44.84483 77.0 44.5 Z M 76.0 25.5 C 76.28093 26.353447 76.71146 26.757866 77.54387 27.030706 C 78.9896 27.704138 80.58957 30.000357 81.0 32.0 C 82.23901 31.890669 83.23028 31.351261 84.0 30.5 C 81.9133 28.617208 79.162346 25.68428 76.0 25.0 C 76.0 25.143518 76.0 25.356482 76.0 25.5 Z M 84.0 43.5 C 83.4713 42.970673 82.810036 42.22537 82.0 42.0 C 81.97013 42.510574 82.03402 43.013775 82.28335 43.4616 C 82.66835 43.88072 83.27363 43.937126 83.761345 43.655437 C 83.85044 43.59741 83.92999 43.545593 84.0 43.5 Z M 91.0 39.5 C 90.04861 38.152966 89.97839 36.044247 90.0 34.308353 C 90.033615 32.854374 90.07242 30.866474 91.0 29.5 C 90.01204 29.03205 88.99173 28.97581 88.0 29.0 C 88.00565 30.871511 87.9931 33.23542 88.00372 35.27371 C 87.900856 37.269733 88.78834 39.978466 91.0 39.5 Z M 96.0 38.25 C 96.345215 39.099545 97.23158 38.96987 98.0 39.0 C 97.9697 38.28618 97.814384 37.635513 97.5 37.0 C 97.077415 37.50684 96.42626 37.843407 96.0 38.25 Z M 133.5 27.0 C 134.44724 26.276901 135.17056 25.252375 135.0 24.0 C 134.39412 24.0 133.65726 24.0 133.0 24.0 C 133.0 24.605883 133.0 25.342741 133.0 26.0 C 133.20908 26.267805 133.2495 26.694368 133.5 27.0 Z M 137.0 25.0 C 137.59712 25.0 138.35054 25.0 139.0 25.0 C 138.9799 23.440329 137.62154 21.592337 136.0 21.0 C 136.01917 22.404888 136.85892 23.621183 137.0 25.0 Z M 159.0 35.3125 C 159.37846 36.00802 160.40634 35.67272 161.0 35.5 C 160.4034 35.319855 159.66795 35.08633 159.0 35.0 C 159.0 35.116665 159.0 35.220833 159.0 35.3125 Z M 162.0 45.3125 C 162.37846 46.00802 163.40634 45.67272 164.0 45.5 C 163.4034 45.319855 162.66795 45.08633 162.0 45.0 C 162.0 45.116665 162.0 45.220833 162.0 45.3125 Z " />

<path style="fill:rgb(22.745098%,56.470592%,85.882355%);fill-rule:evenodd;stroke:none;" name="Path No.3" d="M 7.0 33.5 C 6.4712954 32.970673 5.8100343 32.22537 5.0 32.0 C 4.9701295 32.510574 5.034018 33.013775 5.283352 33.4616 C 5.6683497 33.88072 6.273629 33.937126 6.7613416 33.655437 C 6.840894 33.603626 6.9204473 33.55181 7.0 33.5 Z M 9.5 28.0 C 10.279576 27.350851 10.8523245 27.423527 11.5 28.0 C 11.947584 27.552416 12.514731 26.98527 13.0 26.5 C 12.354321 26.116734 11.685952 25.97838 11.0 26.0 C 11.0 25.105146 11.0 23.973658 11.0 23.0 C 10.402883 23.0 9.649463 23.0 9.0 23.0 C 9.089821 24.477093 8.758114 26.494581 9.5 28.0 Z M 12.0 46.0 C 12.597117 46.0 13.350537 46.0 14.0 46.0 C 14.114889 45.157303 14.412438 44.115784 14.306146 43.19524 C 14.551406 42.34156 13.255433 41.273758 12.8322525 40.208553 C 10.570445 37.247734 10.96265 33.396275 12.0 30.0 C 10.90198 29.931993 9.944654 29.501713 9.0 29.0 C 9.202485 32.279434 8.570333 36.202972 9.699397 38.62951 C 11.420834 40.630573 12.835253 43.143986 12.0 46.0 Z M 14.5 29.0 C 15.4472275 28.276901 16.170565 27.252375 16.0 26.0 C 15.394116 26.0 14.65726 26.0 14.0 26.0 C 14.0 26.605883 14.0 27.342741 14.0 28.0 C 14.209076 28.267805 14.249497 28.694368 14.5 29.0 Z M 18.0 33.5 C 17.218922 32.551044 16.199865 31.835716 15.0 32.0 C 14.798262 33.625996 15.865673 34.258015 17.16054 33.900906 C 17.49094 33.8649 17.7611 33.680664 18.0 33.5 Z M 18.5 46.0 C 18.953453 45.546547 19.50958 44.99042 20.0 44.5 C 19.471296 43.970673 18.810034 43.22537 18.0 43.0 C 17.980436 44.021885 17.956789 45.10554 18.5 46.0 Z M 22.0 43.0 C 22.605883 43.0 23.342741 43.0 24.0 43.0 C 23.938168 41.72548 23.287601 40.28949 22.0 40.0 C 22.0 40.99618 22.0 42.009132 22.0 43.0 Z M 25.0 46.0 C 25.0 45.394115 25.0 44.65726 25.0 44.0 C 24.333345 44.0 23.656408 44.0 23.0 44.0 C 22.806461 45.549065 23.734217 46.15338 25.0 46.0 Z M 42.0 40.0 C 42.0 39.394115 42.0 38.65726 42.0 38.0 C 41.333347 38.0 40.65641 38.0 40.0 38.0 C 39.80646 39.549065 40.73422 40.15338 42.0 40.0 Z M 46.0 34.25 C 46.345215 35.099545 47.231583 34.96987 48.0 35.0 C 47.969704 34.28618 47.814384 33.635513 47.5 33.0 C 47.077415 33.50684 46.426258 33.843407 46.0 34.25 Z M 48.5 44.0 C 49.23673 42.716293 48.91818 40.66825 49.0 39.0 C 48.40288 39.0 47.649464 39.0 47.0 39.0 C 46.81787 40.82404 46.920826 42.791992 48.5 44.0 Z M 64.5 34.0 C 64.95345 33.546547 65.50958 32.99042 66.0 32.5 C 65.4713 31.970675 64.810036 31.22537 64.0 31.0 C 63.98044 32.021885 63.95679 33.10554 64.5 34.0 Z M 71.0 45.5 C 70.24345 44.765976 69.51065 44.028667 69.33008 43.025387 C 69.16578 42.101578 69.41553 41.213318 70.0 40.5 C 68.55644 39.997322 66.985794 41.10628 67.253204 42.606956 C 67.304596 44.089214 68.438995 44.83974 69.51602 45.56983 C 70.066025 45.852226 70.53947 45.702038 71.0 45.5 Z M 96.5 41.0 C 97.44723 40.2769 98.17056 39.252377 98.0 38.0 C 97.39412 38.0 96.65726 38.0 96.0 38.0 C 96.0 38.605885 96.0 39.34274 96.0 40.0 C 96.209076 40.267807 96.2495 40.694366 96.5 41.0 Z M 108.0 36.0 C 108.597115 36.0 109.35054 36.0 110.0 36.0 C 109.719025 34.65201 109.1963 32.94362 108.665794 31.546581 C 108.165054 30.319828 107.351616 28.660084 106.0 28.0 C 105.982994 30.815826 108.05593 33.17508 108.0 36.0 Z M 133.5 26.0 C 133.95345 25.546547 134.50958 24.99042 135.0 24.5 C 134.4713 23.970675 133.81003 23.22537 133.0 23.0 C 132.98044 24.021885 132.95679 25.10554 133.5 26.0 Z M 146.0 41.375 C 146.58528 42.4239 147.99554 43.247585 149.0 42.5 C 148.24931 41.599995 147.21999 40.87707 146.0 41.0 C 146.0 41.12132 146.0 41.26368 146.0 41.375 Z M 148.0 24.375 C 148.58528 25.423903 149.99554 26.247587 151.0 25.5 C 150.24931 24.599995 149.21999 23.877071 148.0 24.0 C 148.0 24.121319 148.0 24.263681 148.0 24.375 Z " />

<path style="fill:rgb(100.0%,71.37255%,40.0%);fill-rule:evenodd;stroke:none;" name="Path No.4" d="M 7.0 45.0 C 7.0415497 43.960896 6.9443965 42.944378 6.5 42.0 C 6.050665 42.420826 5.4238534 42.883236 5.1375604 43.506035 C 4.968074 44.76866 6.086541 45.014946 7.0 45.0 Z M 7.0 41.0 C 7.597118 41.0 8.350537 41.0 9.0 41.0 C 10.202916 35.068897 10.08775 29.012104 10.0 23.0 C 9.402883 23.0 8.649463 23.0 8.0 23.0 C 8.079529 25.842602 7.262822 28.5448 7.6081953 31.327728 C 8.110062 34.569645 7.941784 37.854897 7.0 41.0 Z M 11.0 30.5 C 12.311222 31.015162 13.673052 29.998083 13.913869 28.652962 C 13.938592 28.465538 13.975277 28.187424 14.0 28.0 C 13.402883 28.0 12.649463 28.0 12.0 28.0 C 11.979271 27.148638 11.853916 26.24759 11.0 26.0 C 11.17355 27.559448 12.175655 29.303684 11.0 30.5 Z M 11.0 45.25 C 11.345213 46.099545 12.231582 45.96987 13.0 46.0 C 12.969703 45.28618 12.814383 44.635513 12.5 44.0 C 12.0774145 44.50684 11.426259 44.843407 11.0 45.25 Z M 16.0 27.0 C 16.04155 25.960896 15.944397 24.944378 15.5 24.0 C 15.050665 24.420826 14.423854 24.883236 14.13756 25.506035 C 13.968074 26.768661 15.086541 27.014948 16.0 27.0 Z M 17.0 45.25 C 17.345213 46.099545 18.231583 45.96987 19.0 46.0 C 18.969704 45.28618 18.814383 44.635513 18.5 44.0 C 18.077415 44.50684 17.426258 44.843407 17.0 45.25 Z M 24.0 33.375 C 25.75869 35.519943 27.14774 38.584072 30.0 39.0 C 29.659704 36.80748 27.032019 32.86676 24.0 33.0 C 24.0 33.12132 24.0 33.26368 24.0 33.375 Z M 28.0 26.0 C 28.0 25.394117 28.0 24.657259 28.0 24.0 C 27.333345 24.0 26.656408 24.0 26.0 24.0 C 25.806461 25.549063 26.734217 26.15338 28.0 26.0 Z M 27.5 44.0 C 28.129316 43.112988 27.994055 42.02094 28.0 41.0 C 27.396128 41.0 26.650011 41.0 26.0 41.0 C 25.873552 42.377613 26.583138 43.218338 27.5 44.0 Z M 32.0 44.25 C 32.343746 45.186584 33.67349 44.98988 34.44524 45.0 C 34.604477 45.0 34.840763 45.0 35.0 45.0 C 35.0 44.394115 35.0 43.65726 35.0 43.0 C 33.855026 42.91526 32.797325 43.462368 32.0 44.25 Z M 40.0 41.0 C 40.0 40.394115 40.0 39.65726 40.0 39.0 C 39.333347 39.0 38.65641 39.0 38.0 39.0 C 37.80646 40.549065 38.73422 41.15338 40.0 41.0 Z M 62.0 41.0 C 62.04155 39.960896 61.944397 38.944378 61.5 38.0 C 61.050663 38.420826 60.423855 38.883236 60.13756 39.506035 C 59.968075 40.76866 61.08654 41.014946 62.0 41.0 Z M 64.0 37.0 C 64.04155 35.960896 63.944397 34.944378 63.5 34.0 C 63.050663 34.420826 62.423855 34.883236 62.13756 35.506035 C 61.968075 36.76866 63.08654 37.014946 64.0 37.0 Z M 92.0 43.375 C 92.55036 44.180542 94.01153 43.921738 95.0 44.0 C 95.00726 43.08238 95.040245 41.860382 94.5 41.0 C 93.73388 41.88554 92.7831 42.517822 92.0 43.375 Z M 108.5 38.0 C 109.08322 37.075214 109.00629 35.93026 108.5 35.0 C 108.07457 35.431667 107.588234 35.82996 107.0 36.0 C 107.242874 36.826233 107.90729 37.39632 108.5 38.0 Z M 131.0 22.25 C 131.61365 23.446196 132.43007 24.971119 133.5 26.0 C 134.50444 24.467155 133.42615 22.866518 132.02837 22.196442 C 131.68962 22.085484 131.33862 22.034761 131.0 22.0 C 131.0 22.07176 131.0 22.17824 131.0 22.25 Z M 154.0 25.375 C 154.58528 26.423903 155.99554 27.247587 157.0 26.5 C 156.24931 25.599995 155.21999 24.877071 154.0 25.0 C 154.0 25.121319 154.0 25.263681 154.0 25.375 Z M 157.0 34.375 C 157.58528 35.4239 158.99554 36.247585 160.0 35.5 C 159.24931 34.599995 158.21999 33.87707 157.0 34.0 C 157.0 34.12132 157.0 34.26368 157.0 34.375 Z " />

<path style="fill:rgb(71.37255%,100.0%,100.0%);fill-rule:evenodd;stroke:none;" name="Path No.5" d="M 6.5 32.0 C 7.9375744 30.867561 8.204889 29.519114 8.0 28.0 C 7.3941164 28.0 6.6572595 28.0 6.0 28.0 C 6.047104 29.389284 5.7881165 30.853533 6.5 32.0 Z M 26.0 33.34375 C 26.260504 35.288513 28.232174 38.853886 31.0 39.0 C 30.880766 37.648933 30.05455 36.503838 29.08951 35.58951 C 28.209173 34.76615 27.183434 33.589706 26.0 33.0 C 26.0 33.098667 26.0 33.245083 26.0 33.34375 Z M 77.0 41.0 C 78.13821 41.20633 79.53975 41.688557 80.75 42.0 C 80.565796 41.16603 79.99435 40.519352 79.632256 39.753902 C 78.65479 37.403442 79.13445 33.92877 79.0 31.0 C 78.402885 31.0 77.64946 31.0 77.0 31.0 C 77.0 34.335026 77.0 37.676147 77.0 41.0 Z M 132.0 44.0 C 132.59712 44.0 133.35054 44.0 134.0 44.0 C 134.0 40.781483 134.0 37.61852 134.0 34.4 C 133.80643 31.638124 134.35555 27.942076 133.5 25.0 C 131.4613 27.019724 132.12135 30.966284 132.0 34.12754 C 132.0 37.426003 132.0 40.707626 132.0 44.0 Z " />

<path style="fill:rgb(71.37255%,40.0%,0.0%);fill-rule:evenodd;stroke:none;" name="Path No.6" d="M 5.5 34.0 C 6.640332 32.173084 7.21732 30.147675 7.0 28.0 C 6.402882 28.0 5.649462 28.0 5.0 28.0 C 5.1104827 29.760626 4.7228503 32.17278 5.5 34.0 Z M 9.0 39.3125 C 7.939359 39.38063 7.4113865 40.418903 6.916952 41.25242 C 6.650434 41.84881 6.0783052 42.587692 6.367242 43.175613 C 6.8103995 43.955177 7.8399477 42.44961 7.9829984 42.122593 C 8.406831 41.334328 8.792693 40.260715 9.0 39.3125 Z M 13.0 32.0 C 13.0 31.394117 13.0 30.657259 13.0 30.0 C 12.333345 30.0 11.656409 30.0 11.0 30.0 C 10.80646 31.549063 11.734217 32.15338 13.0 32.0 Z M 12.0 41.375 C 12.516076 42.301598 13.841827 43.043766 15.0 43.0 C 15.0 42.394115 15.0 41.65726 15.0 41.0 C 14.105078 41.0 12.9723625 41.0 12.0 41.0 C 12.0 41.12132 12.0 41.26368 12.0 41.375 Z M 17.0 23.0 C 16.402882 23.0 15.649463 23.0 15.0 23.0 C 15.0 23.894854 15.0 25.026342 15.0 26.0 C 14.170407 26.091127 13.981988 27.588938 14.897576 27.351034 C 15.315721 27.148645 15.625015 26.787945 15.876295 26.412039 C 16.04493 26.102879 16.228676 25.702574 16.360306 25.357574 C 16.599506 24.6713 16.847952 23.775745 17.0 23.0 Z M 17.0 29.25 C 17.441078 30.029373 17.949955 31.006796 18.0 32.0 C 18.597118 32.0 19.350538 32.0 20.0 32.0 C 20.364138 29.655987 20.855593 27.358969 21.0 25.0 C 20.069174 24.97183 18.934317 25.108398 18.0 25.5 C 18.736639 26.522495 19.0251 27.75078 19.0 29.0 C 18.40388 29.0 17.643864 29.0 17.0 29.0 C 17.0 29.07176 17.0 29.17824 17.0 29.25 Z M 18.5 45.0 C 19.129316 44.112988 18.994055 43.02094 19.0 42.0 C 18.396128 42.0 17.650011 42.0 17.0 42.0 C 16.873552 43.377613 17.583138 44.218338 18.5 45.0 Z M 23.5 46.0 C 24.129316 45.112988 23.994055 44.02094 24.0 43.0 C 23.396128 43.0 22.650011 43.0 22.0 43.0 C 21.873552 44.377613 22.583138 45.218338 23.5 46.0 Z M 26.0 25.375 C 26.587051 26.292456 27.727205 27.122456 28.5 28.0 C 29.138845 26.883835 28.334818 25.886497 27.42139 25.308338 C 26.95439 25.100025 26.471697 25.005028 26.0 25.0 C 26.0 25.121319 26.0 25.263681 26.0 25.375 Z M 32.0 44.375 C 32.346634 44.953514 32.997936 45.47513 33.5 46.0 C 33.860733 45.38041 34.009686 44.706432 34.0 44.0 C 33.404564 44.0 32.639107 44.0 32.0 44.0 C 32.0 44.12132 32.0 44.26368 32.0 44.375 Z M 50.0 44.5 C 49.471294 43.970673 48.810036 43.22537 48.0 43.0 C 47.97013 43.510574 48.03402 44.013775 48.28335 44.4616 C 48.66835 44.88072 49.27363 44.937126 49.76134 44.655437 C 49.829845 44.61082 49.931496 44.544617 50.0 44.5 Z M 63.0 40.0 C 63.04155 38.960896 62.944397 37.944378 62.5 37.0 C 62.050663 37.420826 61.423855 37.883236 61.13756 38.506035 C 60.968075 39.76866 62.08654 40.014946 63.0 40.0 Z M 65.0 35.0 C 65.04155 33.960896 64.9444 32.944378 64.5 32.0 C 64.05067 32.420826 63.423855 32.883236 63.13756 33.506035 C 62.968075 34.76866 64.08654 35.014946 65.0 35.0 Z M 93.0 43.5 C 91.95331 41.931755 91.01418 40.04649 89.0 40.0 C 88.869774 41.912704 91.25836 44.268303 93.0 43.5 Z M 96.0 43.0 C 96.04155 41.960896 95.9444 40.944378 95.5 40.0 C 95.05067 40.420826 94.42385 40.883236 94.13756 41.506035 C 93.96807 42.76866 95.08654 43.014946 96.0 43.0 Z M 103.0 27.375 C 103.8831 28.59465 105.410484 29.776917 106.5 31.0 C 107.15611 29.6115 106.34947 27.634768 106.0 26.0 C 104.82442 26.1327 103.74009 26.531672 103.0 27.375 Z M 144.0 24.3125 C 144.37846 25.008018 145.40634 24.67272 146.0 24.5 C 145.4034 24.319855 144.66795 24.086329 144.0 24.0 C 144.0 24.116667 144.0 24.220833 144.0 24.3125 Z M 160.0 44.375 C 160.58528 45.4239 161.99554 46.247585 163.0 45.5 C 162.24931 44.599995 161.21999 43.87707 160.0 44.0 C 160.0 44.12132 160.0 44.26368 160.0 44.375 Z " />

<path style="fill:rgb(0.0%,0.0%,40.0%);fill-rule:evenodd;stroke:none;" name="Path No.7" d="M 7.0 46.0 C 7.0415497 44.960896 6.9443965 43.944378 6.5 43.0 C 6.050665 43.420826 5.4238534 43.883236 5.1375604 44.506035 C 4.968074 45.76866 6.086541 46.014946 7.0 46.0 Z M 6.5 32.0 C 6.747933 30.782272 7.658473 28.305563 6.0 28.0 C 5.927758 29.37675 6.103486 30.694757 6.5 32.0 Z M 16.0 41.5 C 14.738939 40.87391 13.898474 41.93084 13.186792 42.82184 C 12.922234 43.293262 12.5762825 43.886936 12.365103 44.42848 C 12.314845 44.796745 12.342083 45.183678 12.582879 45.471317 C 13.776963 44.46128 14.756814 42.68735 16.0 41.5 Z M 15.0 30.0 C 15.04155 28.960896 14.944397 27.944378 14.5 27.0 C 14.050665 27.420826 13.423854 27.883236 13.13756 28.506035 C 12.968074 29.768661 14.086541 30.014948 15.0 30.0 Z M 18.5 44.0 C 19.129316 43.112988 18.994055 42.02094 19.0 41.0 C 18.396128 41.0 17.650011 41.0 17.0 41.0 C 16.873552 42.377613 17.583138 43.218338 18.5 44.0 Z M 29.5 39.0 C 30.250235 37.44425 28.877441 36.362434 27.847237 35.447803 C 27.601532 35.228867 27.282213 35.09764 27.0 35.0 C 27.061049 36.88643 28.384005 37.8577 29.5 39.0 Z M 63.5 36.0 C 64.496 35.260807 65.20854 34.116905 64.5 33.0 C 64.09246 33.465244 63.58455 33.766483 63.2698 34.23863 C 62.912025 34.889935 63.11068 35.48633 63.5 36.0 Z M 64.5 32.0 C 65.44723 31.276901 66.17056 30.252375 66.0 29.0 C 65.39412 29.0 64.65726 29.0 64.0 29.0 C 64.0 29.605883 64.0 30.342741 64.0 31.0 C 64.209076 31.267805 64.2495 31.694368 64.5 32.0 Z M 76.5 45.0 C 78.29075 42.958637 78.376274 40.91757 78.182274 38.620247 C 77.88687 36.091618 78.05237 33.53628 78.0 31.0 C 77.402885 31.0 76.64946 31.0 76.0 31.0 C 76.0 33.26223 76.0 35.487183 76.0 37.743313 C 76.15292 40.062405 75.68923 42.971165 76.5 45.0 Z M 136.5 23.0 C 136.79456 22.357206 136.98451 21.701838 137.0 21.0 C 136.10622 21.081524 135.92555 21.796942 136.16667 22.481333 C 136.26234 22.63021 136.40433 22.851124 136.5 23.0 Z " />

<path style="fill:rgb(40.0%,0.0%,0.0%);fill-rule:evenodd;stroke:none;" name="Path No.8" d="M 7.0 45.5 C 6.4712954 44.970673 5.8100343 44.22537 5.0 44.0 C 4.9701295 44.510574 5.034018 45.013775 5.283352 45.4616 C 5.6683497 45.88072 6.273629 45.937126 6.7613416 45.655437 C 6.8298454 45.61082 6.931496 45.544617 7.0 45.5 Z M 12.5 46.0 C 13.155246 44.96562 13.975264 43.365032 13.5 42.0 C 13.188193 42.851765 12.900279 43.811512 12.0 44.0 C 12.027502 44.72858 12.110851 45.42709 12.5 46.0 Z M 18.4375 39.0 C 21.019249 38.53365 23.325335 36.65386 23.0 34.0 C 21.595428 34.096886 20.48331 34.997902 19.505075 35.950504 C 18.609776 36.754322 17.846733 37.902958 18.4375 39.0 Z M 26.0 40.25 C 26.335844 42.04231 27.782831 43.99339 28.0 46.0 C 28.711681 45.971092 29.358545 45.80419 30.0 45.5 C 28.397636 43.816162 28.18681 40.914112 26.0 40.0 C 26.0 40.07176 26.0 40.17824 26.0 40.25 Z M 63.5 36.0 C 63.79455 35.35721 63.984505 34.70184 64.0 34.0 C 63.10621 34.081524 62.925545 34.79694 63.16667 35.481335 C 63.291115 35.67497 63.402225 35.84786 63.5 36.0 Z M 64.5 32.0 C 64.86057 31.082304 65.30543 30.211779 66.0 29.5 C 65.38439 29.0818 64.68452 28.978054 64.0 29.0 C 63.94359 30.04036 64.07011 31.04908 64.5 32.0 Z M 76.0 25.5 C 76.752 27.87477 79.650635 29.861202 81.5 32.0 C 81.947586 31.552416 82.51473 30.98527 83.0 30.5 C 81.10547 28.691177 78.78596 25.99369 76.0 25.0 C 76.0 25.143518 76.0 25.356482 76.0 25.5 Z M 81.0 42.375 C 81.346634 42.953514 81.99794 43.47513 82.5 44.0 C 82.86073 43.38041 83.00968 42.706432 83.0 42.0 C 82.404564 42.0 81.63911 42.0 81.0 42.0 C 81.0 42.12132 81.0 42.26368 81.0 42.375 Z M 87.0 29.0 C 87.90443 29.0 89.03157 29.0 90.0 29.0 C 90.0 27.986723 90.0 26.997278 90.0 26.0 C 89.110115 26.0 87.968216 26.0 87.0 26.0 C 87.0 26.889889 87.0 28.031784 87.0 29.0 Z M 90.5 42.0 C 91.12932 41.112988 90.99406 40.02094 91.0 39.0 C 90.396126 39.0 89.65001 39.0 89.0 39.0 C 88.87355 40.377613 89.58314 41.218338 90.5 42.0 Z M 97.0 42.0 C 96.946266 40.761547 97.168045 39.455906 98.0 38.5 C 97.364876 38.206482 96.691475 38.030693 96.0 38.0 C 96.051384 38.99058 95.7436 39.6406 95.31069 40.355556 C 95.11011 41.594967 96.06986 41.991737 97.0 42.0 Z M 133.5 25.0 C 134.19594 23.909868 133.44154 22.843216 132.53836 22.20775 C 132.3642 22.14054 132.15982 22.06167 132.0 22.0 C 131.87904 23.37826 132.58823 24.210274 133.5 25.0 Z M 136.0 22.25 C 136.47601 23.054981 137.06671 24.076628 137.5 25.0 C 138.00795 24.492056 138.49721 24.002796 139.0 23.5 C 138.09213 23.055384 136.98743 22.474724 136.0 22.0 C 136.0 22.07176 136.0 22.17824 136.0 22.25 Z " />

<path style="fill:rgb(40.0%,71.37255%,100.0%);fill-rule:evenodd;stroke:none;" name="Path No.9" d="M 5.0 45.3125 C 5.378468 46.00802 6.40634 45.67272 7.0 45.5 C 6.403395 45.319855 5.667953 45.08633 5.0 45.0 C 5.0 45.116665 5.0 45.220833 5.0 45.3125 Z M 15.0 29.5 C 14.471295 28.970675 13.810034 28.22537 13.0 28.0 C 12.97013 28.510576 13.0340185 29.013775 13.283352 29.461603 C 13.66835 29.880716 14.273629 29.937128 14.761341 29.655437 C 14.840895 29.603624 14.920447 29.551813 15.0 29.5 Z M 14.0 41.3125 C 14.378468 42.00802 15.40634 41.67272 16.0 41.5 C 15.403396 41.319855 14.6679535 41.08633 14.0 41.0 C 14.0 41.116665 14.0 41.220833 14.0 41.3125 Z M 20.0 37.25 C 20.503275 38.012253 21.353048 37.72847 21.988194 37.338642 C 23.127857 36.61699 23.982182 35.36807 24.0 34.0 C 23.402882 34.0 22.649462 34.0 22.0 34.0 C 21.934927 35.38036 21.071558 36.473488 20.0 37.25 Z M 23.5 46.0 C 23.953453 45.546547 24.50958 44.99042 25.0 44.5 C 24.471296 43.970673 23.810034 43.22537 23.0 43.0 C 22.980436 44.021885 22.956789 45.10554 23.5 46.0 Z M 30.0 27.5 C 29.471296 26.970675 28.810034 26.22537 28.0 26.0 C 27.970129 26.510576 28.034018 27.013775 28.283352 27.461603 C 28.66835 27.880716 29.27363 27.937128 29.761341 27.655437 C 29.850441 27.597408 29.929993 27.545595 30.0 27.5 Z M 36.0 45.0 C 36.0 44.394115 36.0 43.65726 36.0 43.0 C 35.333347 43.0 34.65641 43.0 34.0 43.0 C 33.80646 44.549065 34.73422 45.15338 36.0 45.0 Z M 46.0 24.375 C 46.585278 25.423903 47.995537 26.247587 49.0 25.5 C 48.249317 24.599995 47.219982 23.877071 46.0 24.0 C 46.0 24.121319 46.0 24.263681 46.0 24.375 Z M 46.0 36.25 C 47.018723 37.67587 46.921886 39.439075 47.5 41.0 C 48.262764 40.283394 48.91951 39.420834 48.83056 38.38367 C 48.73525 37.212196 47.942844 36.613304 47.03141 36.19757 C 46.695515 36.088055 46.34212 36.03631 46.0 36.0 C 46.0 36.07176 46.0 36.17824 46.0 36.25 Z M 50.0 25.3125 C 50.378468 26.008018 51.40634 25.67272 52.0 25.5 C 51.403397 25.319855 50.667953 25.086329 50.0 25.0 C 50.0 25.116667 50.0 25.220833 50.0 25.3125 Z M 64.0 37.0 C 63.40288 37.0 62.649464 37.0 62.0 37.0 C 62.12502 38.130295 61.3073 39.031425 61.274303 40.10373 C 61.608204 40.814465 62.385956 40.863846 62.876583 40.392727 C 63.30982 39.827213 63.488277 39.14242 63.63414 38.463444 C 63.74441 38.022354 63.88029 37.478836 64.0 37.0 Z M 89.0 39.25 C 89.75051 40.489998 90.544655 42.668247 92.0 42.75 C 91.70248 41.640114 91.238625 40.22304 91.0 39.0 C 90.40388 39.0 89.64386 39.0 89.0 39.0 C 89.0 39.07176 89.0 39.17824 89.0 39.25 Z M 93.0 43.375 C 93.62815 44.073032 94.423935 43.64394 95.05963 43.256783 C 96.66761 42.28921 97.12693 40.573895 96.5 39.0 C 95.91401 41.159542 94.28433 41.95212 93.0 43.375 Z M 104.0 27.25 C 104.345215 28.099546 105.23158 27.969872 106.0 28.0 C 105.9697 27.286179 105.814384 26.635513 105.5 26.0 C 105.077415 26.50684 104.42626 26.843407 104.0 27.25 Z M 109.0 41.0 C 109.60588 41.0 110.34274 41.0 111.0 41.0 C 111.0 40.10357 111.0 38.97643 111.0 38.0 C 110.39412 38.0 109.65726 38.0 109.0 38.0 C 109.0 38.605885 109.0 39.34274 109.0 40.0 C 109.0 40.296825 109.0 40.67671 109.0 41.0 Z M 137.0 23.3125 C 137.37846 24.008018 138.40634 23.67272 139.0 23.5 C 138.4034 23.319855 137.66795 23.086329 137.0 23.0 C 137.0 23.116667 137.0 23.220833 137.0 23.3125 Z M 148.0 32.375 C 148.58528 33.4239 149.99554 34.247585 151.0 33.5 C 150.24931 32.599995 149.21999 31.877071 148.0 32.0 C 148.0 32.12132 148.0 32.26368 148.0 32.375 Z " />

<path style="fill:rgb(0.0%,0.0%,22.745098%);fill-rule:evenodd;stroke:none;" name="Path No.10" d="M 7.5 43.0 C 7.794553 42.35721 7.9845057 41.70184 8.0 41.0 C 7.10621 41.081524 6.925545 41.79694 7.1666727 42.481335 C 7.291115 42.67497 7.402224 42.84786 7.5 43.0 Z M 15.0 24.25 C 15.345213 25.099546 16.231583 24.969872 17.0 25.0 C 16.969704 24.286179 16.814383 23.635513 16.5 23.0 C 16.077415 23.50684 15.426259 23.843407 15.0 24.25 Z M 19.0 25.25 C 19.8743 26.927757 19.377146 28.383577 19.0 30.0 C 19.930687 29.99927 21.085663 29.967218 22.0 29.5 C 21.153534 28.36449 22.131437 26.51715 22.0 25.0 C 21.094036 25.0 19.983845 25.0 19.0 25.0 C 19.0 25.07176 19.0 25.17824 19.0 25.25 Z M 21.0 40.375 C 21.346634 40.953514 21.997936 41.47513 22.5 42.0 C 22.860731 41.38041 23.009684 40.706432 23.0 40.0 C 22.404562 40.0 21.639107 40.0 21.0 40.0 C 21.0 40.12132 21.0 40.26368 21.0 40.375 Z M 26.0 25.25 C 26.417292 25.91837 27.251617 25.999193 28.0 26.0 C 28.028908 26.711681 28.195808 27.358545 28.5 28.0 C 28.975407 26.563982 28.110962 25.23899 27.5 24.0 C 27.085154 24.43616 26.489584 24.840004 26.0 25.25 Z M 26.0 41.375 C 26.821785 42.39456 28.046091 43.589485 28.5 45.0 C 28.958157 43.652134 28.129395 42.329254 28.0 41.0 C 27.40922 41.0 26.641813 41.0 26.0 41.0 C 26.0 41.12132 26.0 41.26368 26.0 41.375 Z M 64.0 38.0 C 64.04155 36.960896 63.944397 35.944378 63.5 35.0 C 63.050663 35.420826 62.423855 35.883236 62.13756 36.506035 C 61.968075 37.76866 63.08654 38.014946 64.0 38.0 Z M 64.5 34.0 C 64.794556 33.35721 64.984505 32.70184 65.0 32.0 C 64.10621 32.081524 63.925545 32.79694 64.16667 33.481335 C 64.291115 33.67497 64.40222 33.84786 64.5 34.0 Z M 77.0 45.0 C 77.0 44.394115 77.0 43.65726 77.0 43.0 C 76.33334 43.0 75.65641 43.0 75.0 43.0 C 74.80646 44.549065 75.734215 45.15338 77.0 45.0 Z M 79.0 41.3125 C 79.37847 42.00802 80.40634 41.67272 81.0 41.5 C 80.4034 41.319855 79.66795 41.08633 79.0 41.0 C 79.0 41.116665 79.0 41.220833 79.0 41.3125 Z M 88.5 31.0 C 89.228325 30.442032 90.06138 30.022774 91.0 30.0 C 91.0 28.823263 91.0 27.27624 91.0 26.0 C 90.402885 26.0 89.64946 26.0 89.0 26.0 C 88.99433 26.836788 88.741714 27.647604 88.30471 28.369804 C 88.03481 29.253578 88.137886 30.170374 88.5 31.0 Z M 97.0 38.4375 C 97.359116 38.85035 97.64779 38.739502 98.0 38.5 C 97.64963 38.2274 97.33189 38.1112 97.0 38.4375 Z M 108.0 40.0 C 110.126045 39.953087 111.25028 38.14113 110.5869 36.359585 C 110.04147 35.47848 109.05444 34.42258 108.0 34.0 C 108.0 36.0149 108.0 37.98894 108.0 40.0 Z M 132.0 22.4375 C 132.35912 22.850351 132.64778 22.7395 133.0 22.5 C 132.64963 22.227404 132.3319 22.111198 132.0 22.4375 Z M 161.0 27.3125 C 161.37846 28.008018 162.40634 27.67272 163.0 27.5 C 162.4034 27.319855 161.66795 27.086329 161.0 27.0 C 161.0 27.116667 161.0 27.220833 161.0 27.3125 Z " />

<path style="fill:rgb(22.745098%,0.0%,0.0%);fill-rule:evenodd;stroke:none;" name="Path No.11" d="M 5.0 33.4375 C 5.359118 33.85035 5.647789 33.739502 6.0 33.5 C 5.6496253 33.2274 5.3318887 33.1112 5.0 33.4375 Z M 7.0 41.4375 C 7.359118 41.85035 7.647789 41.739502 8.0 41.5 C 7.6496253 41.2274 7.3318887 41.1112 7.0 41.4375 Z M 11.0 30.375 C 11.346634 30.953516 11.997937 31.475128 12.5 32.0 C 12.860731 31.380411 13.009684 30.706432 13.0 30.0 C 12.404562 30.0 11.639106 30.0 11.0 30.0 C 11.0 30.121319 11.0 30.263681 11.0 30.375 Z M 14.0 27.4375 C 14.359118 27.850351 14.647789 27.7395 15.0 27.5 C 14.649625 27.227404 14.331889 27.111198 14.0 27.4375 Z M 19.0 41.5 C 18.397825 41.140186 17.70431 40.96337 17.0 41.0 C 16.975437 41.48656 16.997826 41.976357 17.247097 42.40899 C 17.678408 42.78575 18.247192 42.25667 18.544708 41.95529 C 18.681343 41.818657 18.8574 41.6426 19.0 41.5 Z M 22.0 44.0 C 22.605883 44.0 23.342741 44.0 24.0 44.0 C 23.938168 42.72548 23.287601 41.28949 22.0 41.0 C 22.0 41.99618 22.0 43.009132 22.0 44.0 Z M 26.0 25.3125 C 26.378468 26.008018 27.40634 25.67272 28.0 25.5 C 27.403395 25.319855 26.667953 25.086329 26.0 25.0 C 26.0 25.116667 26.0 25.220833 26.0 25.3125 Z M 28.0 27.4375 C 28.359118 27.850351 28.647789 27.7395 29.0 27.5 C 28.649626 27.227404 28.331888 27.111198 28.0 27.4375 Z M 64.5 33.0 C 64.794556 32.35721 64.984505 31.701838 65.0 31.0 C 64.10621 31.081524 63.925545 31.796942 64.16667 32.481335 C 64.291115 32.67497 64.40222 32.84786 64.5 33.0 Z M 65.0 27.0 C 65.60588 27.0 66.34274 27.0 67.0 27.0 C 67.0 26.103569 67.0 24.97643 67.0 24.0 C 66.39412 24.0 65.65726 24.0 65.0 24.0 C 65.0 24.605883 65.0 25.342741 65.0 26.0 C 65.0 26.296824 65.0 26.67671 65.0 27.0 Z M 75.5 45.0 C 77.29075 42.958637 77.376274 40.91757 77.182274 38.620247 C 76.88687 36.091618 77.05237 33.53628 77.0 31.0 C 76.402885 31.0 75.64946 31.0 75.0 31.0 C 75.0 33.26223 75.0 35.487183 75.0 37.743313 C 75.15292 40.062405 74.68923 42.971165 75.5 45.0 Z M 88.5 31.0 C 89.61889 29.539593 88.58814 28.32128 87.63775 27.271542 C 87.44627 27.184965 87.201546 27.08355 87.0 27.0 C 86.81923 28.53408 87.26381 30.015812 88.5 31.0 Z " />

<path style="fill:rgb(56.470592%,22.745098%,0.0%);fill-rule:evenodd;stroke:none;" name="Path No.12" d="M 10.0 39.0 C 10.04155 37.960896 9.944397 36.944378 9.5 36.0 C 9.050665 36.420826 8.423854 36.883236 8.13756 37.506035 C 7.968074 38.76866 9.086541 39.014946 10.0 39.0 Z M 12.0 28.375 C 12.346634 28.953516 12.997937 29.475128 13.5 30.0 C 13.860731 29.380411 14.009684 28.706432 14.0 28.0 C 13.404562 28.0 12.639106 28.0 12.0 28.0 C 12.0 28.121319 12.0 28.263681 12.0 28.375 Z M 17.0 42.4375 C 17.359118 42.85035 17.647789 42.739502 18.0 42.5 C 17.649626 42.2274 17.331888 42.1112 17.0 42.4375 Z M 20.0 33.0 C 20.04155 31.960896 19.944397 30.944378 19.5 30.0 C 19.050665 30.420826 18.423853 30.883236 18.13756 31.506035 C 17.968075 32.76866 19.08654 33.014946 20.0 33.0 Z M 21.0 40.4375 C 21.359118 40.85035 21.647789 40.739502 22.0 40.5 C 21.649626 40.2274 21.331888 40.1112 21.0 40.4375 Z M 26.5 35.0 C 27.179405 33.610054 26.169462 32.450428 24.941566 32.12069 C 24.634762 32.037964 24.316496 32.007915 24.0 32.0 C 23.952534 33.9329 25.417618 34.14667 26.5 35.0 Z M 35.0 42.25 C 35.343746 43.186584 36.67349 42.98988 37.44524 43.0 C 37.604477 43.0 37.840763 43.0 38.0 43.0 C 38.0 42.394115 38.0 41.65726 38.0 41.0 C 36.855026 40.91526 35.797325 41.462368 35.0 42.25 Z M 36.0 24.3125 C 36.378468 25.008018 37.40634 24.67272 38.0 24.5 C 37.403397 24.319855 36.667953 24.086329 36.0 24.0 C 36.0 24.116667 36.0 24.220833 36.0 24.3125 Z M 40.0 38.25 C 40.42051 39.238235 41.37129 38.824562 42.031284 38.40062 C 42.38769 38.12334 42.692123 37.81954 43.0 37.5 C 42.025005 36.753902 40.726192 37.45195 40.0 38.25 Z M 44.0 35.25 C 44.42051 36.238235 45.37129 35.824562 46.031284 35.40062 C 46.38769 35.12334 46.692123 34.81954 47.0 34.5 C 46.025005 33.753902 44.726192 34.45195 44.0 35.25 Z M 60.5 42.0 C 61.496 41.260807 62.20854 40.116905 61.5 39.0 C 61.09246 39.465244 60.58455 39.766483 60.2698 40.23863 C 59.912025 40.889935 60.11068 41.48633 60.5 42.0 Z M 64.0 37.5 C 63.471294 36.970673 62.810036 36.22537 62.0 36.0 C 61.97013 36.510574 62.03402 37.013775 62.28335 37.4616 C 62.66835 37.88072 63.27363 37.937126 63.76134 37.655437 C 63.85044 37.59741 63.929993 37.545593 64.0 37.5 Z M 63.0 28.375 C 63.516075 29.301598 64.84183 30.043766 66.0 30.0 C 66.0 29.394117 66.0 28.657259 66.0 28.0 C 65.099304 28.0 63.965855 28.0 63.0 28.0 C 63.0 28.121319 63.0 28.263681 63.0 28.375 Z M 68.0 40.25 C 68.42051 41.238235 69.371284 40.824562 70.03128 40.40062 C 70.387695 40.12334 70.69212 39.81954 71.0 39.5 C 70.02501 38.753902 68.7262 39.45195 68.0 40.25 Z M 88.5 39.0 C 88.794556 38.35721 88.984505 37.70184 89.0 37.0 C 88.10621 37.081524 87.925545 37.79694 88.16667 38.481335 C 88.291115 38.67497 88.40222 38.84786 88.5 39.0 Z M 108.5 36.0 C 109.12932 35.112988 108.99406 34.02094 109.0 33.0 C 108.396126 33.0 107.65001 33.0 107.0 33.0 C 106.87355 34.377613 107.58314 35.218338 108.5 36.0 Z M 108.0 41.0 C 108.60588 41.0 109.34274 41.0 110.0 41.0 C 109.55604 39.655098 109.503685 37.250446 108.0 37.0 C 108.0 38.18047 108.0 39.715187 108.0 41.0 Z M 133.5 26.0 C 133.79456 25.357206 133.98451 24.701838 134.0 24.0 C 133.10622 24.081524 132.92555 24.796942 133.16667 25.481333 C 133.2745 25.649132 133.40105 25.846033 133.5 26.0 Z M 149.0 33.3125 C 149.37846 34.00802 150.40634 33.67272 151.0 33.5 C 150.4034 33.319855 149.66795 33.08633 149.0 33.0 C 149.0 33.116665 149.0 33.220833 149.0 33.3125 Z " />

<path style="fill:rgb(0.0%,22.745098%,56.470592%);fill-rule:evenodd;stroke:none;" name="Path No.13" d="M 11.5 41.0 C 12.195932 39.909866 11.441537 38.843216 10.5383625 38.207752 C 10.358909 38.1385 10.179454 38.069252 10.0 38.0 C 9.879042 39.378258 10.588223 40.210274 11.5 41.0 Z M 12.0 31.4375 C 12.359118 31.850351 12.647789 31.7395 13.0 31.5 C 12.649625 31.227404 12.331889 31.111198 12.0 31.4375 Z M 18.0 25.5 C 17.218922 24.551046 16.199865 23.835716 15.0 24.0 C 14.798262 25.625996 15.865673 26.258015 17.16054 25.900906 C 17.49094 25.864897 17.7611 25.680666 18.0 25.5 Z M 18.0 41.4375 C 18.359118 41.85035 18.647789 41.739502 19.0 41.5 C 18.649626 41.2274 18.331888 41.1112 18.0 41.4375 Z M 22.0 43.25 C 22.345213 44.099545 23.231583 43.96987 24.0 44.0 C 23.969704 43.28618 23.814383 42.635513 23.5 42.0 C 23.077415 42.50684 22.426258 42.843407 22.0 43.25 Z M 24.0 32.0 C 24.605883 32.0 25.342741 32.0 26.0 32.0 C 26.02453 31.066069 26.39101 30.191097 27.0 29.5 C 26.064716 29.051874 25.012012 28.962612 24.0 29.0 C 24.0 29.889889 24.0 31.031784 24.0 32.0 Z M 29.0 45.4375 C 29.359118 45.85035 29.647789 45.739502 30.0 45.5 C 29.649626 45.2274 29.331888 45.1112 29.0 45.4375 Z M 36.0 42.25 C 36.42051 43.238235 37.37129 42.824562 38.031284 42.40062 C 38.38769 42.12334 38.692123 41.81954 39.0 41.5 C 38.025005 40.753902 36.726192 41.45195 36.0 42.25 Z M 52.0 32.0 C 52.0 31.394117 52.0 30.657259 52.0 30.0 C 51.333347 30.0 50.65641 30.0 50.0 30.0 C 49.80646 31.549063 50.73422 32.15338 52.0 32.0 Z M 55.0 44.3125 C 55.378468 45.00802 56.40634 44.67272 57.0 44.5 C 56.403397 44.319855 55.667953 44.08633 55.0 44.0 C 55.0 44.116665 55.0 44.220833 55.0 44.3125 Z M 64.0 37.5 C 63.364876 37.206482 62.69147 37.030693 62.0 37.0 C 62.0 37.59712 62.0 38.350536 62.0 39.0 C 61.214844 39.136158 60.885628 39.999054 61.56622 40.46614 C 61.945374 40.352394 62.260395 40.108727 62.512672 39.817284 C 62.74417 39.534073 62.937714 39.22947 63.09839 38.911144 C 63.352215 38.40932 63.65262 37.93363 64.0 37.5 Z M 66.5 26.0 C 66.794556 25.357206 66.984505 24.701838 67.0 24.0 C 66.10621 24.081524 65.925545 24.796942 66.16667 25.481333 C 66.291115 25.674969 66.40222 25.847858 66.5 26.0 Z M 68.0 40.3125 C 68.37847 41.00802 69.40634 40.67272 70.0 40.5 C 69.4034 40.319855 68.66795 40.08633 68.0 40.0 C 68.0 40.116665 68.0 40.220833 68.0 40.3125 Z M 81.0 42.3125 C 81.37847 43.00802 82.40634 42.67272 83.0 42.5 C 82.4034 42.319855 81.66795 42.08633 81.0 42.0 C 81.0 42.116665 81.0 42.220833 81.0 42.3125 Z M 90.5 42.0 C 90.794556 41.35721 90.984505 40.70184 91.0 40.0 C 90.10621 40.081524 89.925545 40.79694 90.16667 41.481335 C 90.26235 41.63021 90.40432 41.851124 90.5 42.0 Z M 106.5 30.0 C 107.19593 28.909868 106.441536 27.843216 105.53836 27.20775 C 105.35891 27.1385 105.17945 27.06925 105.0 27.0 C 104.87904 28.37826 105.58823 29.210274 106.5 30.0 Z M 107.0 34.0 C 107.60588 34.0 108.34274 34.0 109.0 34.0 C 108.93816 32.72548 108.2876 31.28949 107.0 31.0 C 107.0 31.996183 107.0 33.009132 107.0 34.0 Z M 133.5 25.0 C 133.79456 24.357206 133.98451 23.701838 134.0 23.0 C 133.10622 23.081524 132.92555 23.796942 133.16667 24.481333 C 133.2745 24.649132 133.40105 24.846033 133.5 25.0 Z M 152.0 42.375 C 152.58528 43.4239 153.99554 44.247585 155.0 43.5 C 154.24931 42.599995 153.21999 41.87707 152.0 42.0 C 152.0 42.12132 152.0 42.26368 152.0 42.375 Z " />

<path style="fill:rgb(100.0%,85.882355%,56.470592%);fill-rule:evenodd;stroke:none;" name="Path No.14" d="M 11.0 30.4375 C 11.359118 30.850351 11.647789 30.7395 12.0 30.5 C 11.649625 30.227404 11.331889 30.111198 11.0 30.4375 Z M 73.0 45.25 C 73.19432 45.760372 73.5186 45.93721 74.0 46.0 C 75.40635 44.83617 76.74091 41.087376 76.1962 39.15016 C 75.854294 36.433987 75.68691 33.715656 75.5 31.0 C 75.349365 33.59781 75.1377 36.173313 74.84684 38.747643 C 74.711136 39.986664 74.86749 41.150566 74.530014 42.383827 C 74.63412 43.69991 73.68963 44.36606 73.0 45.25 Z M 87.5 30.0 C 87.92085 28.994545 88.37029 27.191729 87.0 27.0 C 86.97669 28.032642 87.1476 29.044611 87.5 30.0 Z " />

<path style="fill:rgb(100.0%,100.0%,71.37255%);fill-rule:evenodd;stroke:none;" name="Path No.15" d="M 18.0 37.46875 C 19.620848 37.890762 20.717081 34.652073 22.5 36.0 C 22.908003 35.041378 23.008123 33.95434 22.5 33.0 C 21.122122 34.641582 19.375465 35.849106 18.0 37.46875 Z M 76.0 26.458313 C 77.53041 28.218578 79.799614 30.125343 81.5 32.0 C 81.58983 30.854197 80.189545 29.866978 79.39754 28.897535 C 78.421196 28.012505 77.29621 26.658699 76.0 26.0 C 76.0 26.131554 76.0 26.32676 76.0 26.458313 Z M 87.5 28.0 C 87.794556 27.357206 87.984505 26.701838 88.0 26.0 C 87.10621 26.081524 86.925545 26.796942 87.16667 27.481333 C 87.291115 27.674969 87.40222 27.847858 87.5 28.0 Z " />

<path style="fill:rgb(56.470592%,85.882355%,100.0%);fill-rule:evenodd;stroke:none;" name="Path No.16" d="M 20.0 25.25 C 20.512146 26.03977 21.345448 26.928787 21.5 28.0 C 21.791449 27.00695 22.020283 26.029346 22.0 25.0 C 21.396128 25.0 20.650011 25.0 20.0 25.0 C 20.0 25.07176 20.0 25.17824 20.0 25.25 Z M 90.5 30.0 C 90.74793 28.782272 91.65847 26.305563 90.0 26.0 C 89.92776 27.37675 90.103485 28.694757 90.5 30.0 Z M 110.5 39.0 C 110.92085 37.994545 111.37029 36.19173 110.0 36.0 C 109.97669 37.032642 110.1476 38.04461 110.5 39.0 Z " />

<path style="fill:rgb(56.470592%,22.745098%,22.745098%);fill-rule:evenodd;stroke:none;" name="Path No.17" d="M 13.0 41.5 C 12.471295 40.970673 11.810034 40.22537 11.0 40.0 C 10.97013 40.510574 11.0340185 41.013775 11.283352 41.4616 C 11.66835 41.88072 12.273629 41.937126 12.761341 41.655437 C 12.850441 41.59741 12.929994 41.545593 13.0 41.5 Z M 35.0 44.5 C 34.397823 44.140186 33.704308 43.96337 33.0 44.0 C 32.975437 44.48656 32.997826 44.976357 33.247097 45.40899 C 33.67841 45.78575 34.247192 45.25667 34.54471 44.95529 C 34.681343 44.818657 34.8574 44.6426 35.0 44.5 Z " />

<path style="fill:rgb(40.0%,71.37255%,85.882355%);fill-rule:evenodd;stroke:none;" name="Path No.18" d="M 12.0 41.4375 C 12.359118 41.85035 12.647789 41.739502 13.0 41.5 C 12.649625 41.2274 12.331889 41.1112 12.0 41.4375 Z M 23.5 35.0 C 24.344812 34.155186 25.160194 33.339806 26.0 32.5 C 25.06395 32.042316 24.017864 31.976095 23.0 32.0 C 22.995646 32.90244 22.969706 34.128002 23.5 35.0 Z " />

<path style="fill:rgb(40.0%,22.745098%,0.0%);fill-rule:evenodd;stroke:none;" name="Path No.19" d="M 5.0 45.4375 C 5.359118 45.85035 5.647789 45.739502 6.0 45.5 C 5.6496253 45.2274 5.3318887 45.1112 5.0 45.4375 Z M 26.0 41.4375 C 26.359118 41.85035 26.647789 41.739502 27.0 41.5 C 26.649626 41.2274 26.331888 41.1112 26.0 41.4375 Z " />

<path style="fill:rgb(71.37255%,40.0%,40.0%);fill-rule:evenodd;stroke:none;" name="Path No.20" d="M 16.0 32.5 C 15.471295 31.970675 14.810034 31.22537 14.0 31.0 C 13.97013 31.510576 14.0340185 32.013775 14.283352 32.4616 C 14.66835 32.88072 15.273629 32.937126 15.761341 32.655437 C 15.840895 32.603626 15.920447 32.55181 16.0 32.5 Z " />

<path style="fill:rgb(85.882355%,71.37255%,40.0%);fill-rule:evenodd;stroke:none;" name="Path No.21" d="M 26.0 25.4375 C 26.359118 25.850351 26.647789 25.7395 27.0 25.5 C 26.649626 25.227404 26.331888 25.111198 26.0 25.4375 Z " />

<path style="fill:rgb(40.0%,56.470592%,71.37255%);fill-rule:evenodd;stroke:none;" name="Path No.22" d="M 52.0 31.5 C 51.471294 30.970675 50.810036 30.22537 50.0 30.0 C 49.97013 30.510576 50.03402 31.013775 50.28335 31.461603 C 50.66835 31.880716 51.27363 31.937128 51.76134 31.655437 C 51.85044 31.597408 51.929993 31.545595 52.0 31.5 Z " />

<path style="fill:rgb(71.37255%,56.470592%,22.745098%);fill-rule:evenodd;stroke:none;" name="Path No.23" d="M 18.0 30.0 C 18.0 29.394117 18.0 28.657259 18.0 28.0 C 17.333345 28.0 16.656408 28.0 16.0 28.0 C 15.80646 29.549063 16.734217 30.15338 18.0 30.0 Z " />

<path style="fill:rgb(100.0%,100.0%,85.882355%);fill-rule:evenodd;stroke:none;" name="Path No.24" d="M 12.0 28.4375 C 12.359118 28.850351 12.647789 28.7395 13.0 28.5 C 12.649625 28.227404 12.331889 28.111198 12.0 28.4375 Z " />

<path style="fill:rgb(0.0%,0.0%,0.0%);fill-rule:evenodd;stroke:none;" name="Path No.25" d="M 6.0 43.4375 C 6.359118 43.85035 6.647789 43.739502 7.0 43.5 C 6.6496253 43.2274 6.3318887 43.1112 6.0 43.4375 Z M 8.5 41.0 C 9.269436 40.392242 10.100853 40.067722 11.0 40.0 C 10.1597395 36.44496 9.0037155 30.821255 12.0 27.5 C 11.308534 27.333815 10.691573 27.67131 10.0 27.6875 C 9.833823 26.129591 9.665518 24.551733 9.5 23.0 C 9.096822 26.341908 8.970246 29.661293 8.99792 33.023426 C 9.185872 35.716244 8.205478 38.360416 8.5 41.0 Z M 11.0 40.4375 C 11.359118 40.85035 11.647789 40.739502 12.0 40.5 C 11.649625 40.2274 11.331889 40.1112 11.0 40.4375 Z M 12.0 45.4375 C 12.359118 45.85035 12.647789 45.739502 13.0 45.5 C 12.649625 45.2274 12.331889 45.1112 12.0 45.4375 Z M 13.0 29.4375 C 13.359118 29.850351 13.647789 29.7395 14.0 29.5 C 13.649625 29.227404 13.331889 29.111198 13.0 29.4375 Z M 13.0 37.75 C 13.149207 38.402992 13.393114 38.598637 14.0 38.5 C 15.876239 37.359837 17.535198 36.137825 18.644737 34.311268 C 19.659286 32.737732 20.879173 30.499544 23.0 30.0 C 22.826668 31.53785 22.457664 33.054623 21.954828 34.50714 C 21.46867 35.931755 20.63532 36.633083 20.5 38.0 C 22.411612 36.357456 23.802225 33.738533 26.0 33.0 C 25.899384 32.070583 25.578205 31.231056 25.0 30.5 C 26.380318 29.79056 28.352505 29.752878 30.0 29.5 C 28.497898 29.347622 26.638739 29.10561 25.0 29.0 C 24.833353 27.000244 24.666548 24.998573 24.5 23.0 C 24.333353 24.999756 24.166548 27.001427 24.0 29.0 C 22.543005 28.932817 21.056486 28.894356 19.638514 28.571165 C 18.558308 28.45326 17.212677 28.176836 16.0 28.5 C 16.816946 29.352627 17.815485 29.912212 19.0 30.0 C 18.837854 31.176779 18.308811 32.14841 17.5 33.0 C 16.48392 32.75846 15.1353245 32.073242 14.0 32.5 C 14.902315 33.353283 15.893792 33.96273 17.0 34.5 C 15.856708 35.847347 14.151327 36.671616 13.0 37.75 Z M 13.0 43.4375 C 13.359118 43.85035 13.647789 43.739502 14.0 43.5 C 13.649625 43.2274 13.331889 43.1112 13.0 43.4375 Z M 14.0 41.4375 C 14.359118 41.85035 14.647789 41.739502 15.0 41.5 C 14.649625 41.2274 14.331889 41.1112 14.0 41.4375 Z M 15.5 27.0 C 16.99999 25.661375 19.14903 25.776962 21.0 25.5 C 18.859678 25.46408 16.867718 25.016922 15.0 24.0 C 15.014529 25.034399 15.171461 26.02505 15.5 27.0 Z M 18.5 46.0 C 18.920855 44.994545 19.370295 43.19173 18.0 43.0 C 17.97669 44.032642 18.147594 45.04461 18.5 46.0 Z M 22.0 41.4375 C 22.359118 41.85035 22.647789 41.739502 23.0 41.5 C 22.649626 41.2274 22.331888 41.1112 22.0 41.4375 Z M 22.0 43.25 C 22.512146 44.03977 23.345448 44.928787 23.5 46.0 C 23.791449 45.00695 24.020283 44.029346 24.0 43.0 C 23.396128 43.0 22.650011 43.0 22.0 43.0 C 22.0 43.07176 22.0 43.17824 22.0 43.25 Z M 26.5 35.0 C 26.794552 34.35721 26.984505 33.70184 27.0 33.0 C 26.10621 33.081524 25.925545 33.79694 26.166674 34.481335 C 26.291115 34.67497 26.402224 34.84786 26.5 35.0 Z M 27.0 42.4375 C 27.359118 42.85035 27.647789 42.739502 28.0 42.5 C 27.649626 42.2274 27.331888 42.1112 27.0 42.4375 Z M 28.0 44.4375 C 28.359118 44.85035 28.647789 44.739502 29.0 44.5 C 28.649626 44.2274 28.331888 44.1112 28.0 44.4375 Z M 33.0 44.375 C 34.305084 45.235107 35.267612 43.926563 36.26803 43.254047 C 37.95188 42.09208 39.538136 40.81984 41.087017 39.502213 C 42.77447 37.92546 44.974354 37.362316 47.0 36.5 C 46.552418 36.052418 45.985268 35.485268 45.5 35.0 C 43.324528 35.776653 41.19597 38.14362 38.928593 39.65045 C 37.86794 40.47206 36.856174 41.3625 35.76352 42.1267 C 34.981636 42.86267 33.752647 43.520603 33.0 44.375 Z M 35.0 30.25 C 35.781937 31.139204 37.346916 30.9014 38.53559 30.965393 C 40.449085 31.020931 42.35614 30.985344 44.26715 31.015778 C 45.691307 31.089613 47.56135 30.90799 49.0 31.5 C 48.1088 32.3912 46.96762 33.53238 46.0 34.5 C 47.02691 34.726284 47.917767 33.613743 48.81049 32.951183 C 49.97252 32.30173 50.7369 31.293774 51.0 30.0 C 48.18068 30.0 45.413086 30.0 42.6 30.0 C 41.219368 29.995642 39.84975 29.999895 38.480648 30.01339 C 37.451077 30.111032 36.078033 29.885035 35.0 30.25 Z M 37.0 24.25 C 37.743237 25.087389 39.225292 24.88527 40.346085 24.990868 C 42.29769 25.0038 44.2454 25.000937 46.16897 25.364763 C 47.57438 25.597448 49.476574 26.013006 51.0 25.5 C 49.027893 24.768047 46.376575 24.381832 44.110977 24.132908 C 42.753487 24.033226 41.423695 23.984499 40.06261 24.01256 C 39.161163 24.057316 37.94012 23.93799 37.0 24.25 Z M 56.0 44.5 C 53.650696 44.120407 50.83308 44.56679 49.091885 42.9023 C 48.254227 42.001373 48.13098 40.76121 47.99624 39.608307 C 47.89674 38.68555 48.06928 37.69456 47.5 37.0 C 46.855286 37.868515 47.09042 39.388992 47.098263 40.615902 C 47.33454 42.010834 47.874626 43.553646 49.145317 44.170124 C 49.78403 44.79489 51.105095 44.663406 52.122604 44.78159 C 53.267925 44.735165 54.75832 44.584007 56.0 44.5 Z M 60.0 28.25 C 60.71297 29.004414 62.078213 28.947948 63.1589 29.106441 C 66.22239 29.385334 69.02396 28.771278 72.0 28.5 C 70.20528 28.252966 67.84741 28.246603 66.0 27.5 C 66.63345 26.648664 66.82863 25.928354 66.5 25.0 C 66.06697 25.529707 65.58713 26.181698 65.05864 26.673546 C 64.061035 28.428394 61.698845 27.532955 60.0 28.25 Z M 60.5 43.0 C 61.006134 42.10962 61.524292 40.90715 62.038593 39.914856 C 62.475574 38.996296 62.854633 37.991116 62.5 37.0 C 61.874104 37.93328 61.567368 39.012024 61.05057 39.99017 C 60.511612 40.95303 59.91217 42.02705 60.5 43.0 Z M 63.0 35.4375 C 63.35912 35.85035 63.64779 35.739502 64.0 35.5 C 63.649624 35.2274 63.33189 35.1112 63.0 35.4375 Z M 64.0 32.4375 C 64.359116 32.85035 64.64779 32.739502 65.0 32.5 C 64.64963 32.2274 64.33189 32.1112 64.0 32.4375 Z M 76.0 44.5 C 75.23635 44.316914 74.39899 44.67157 73.7052 44.805134 C 72.316 44.964897 70.822266 44.99269 69.541534 44.328773 C 69.04445 43.91648 68.65313 43.40394 68.302155 42.873165 C 68.034706 42.235382 67.970436 41.514095 67.5 41.0 C 66.63843 42.128887 67.72227 43.848957 68.517555 44.67756 C 70.011185 46.126476 73.092735 46.332726 75.03728 45.21187 C 75.391624 44.993656 75.71504 44.74836 76.0 44.5 Z M 68.0 40.4375 C 68.359116 40.85035 68.64779 40.739502 69.0 40.5 C 68.64963 40.2274 68.33189 40.1112 68.0 40.4375 Z M 70.0 39.25 C 71.20924 40.43946 73.79534 39.66727 75.57582 40.22771 C 77.08323 40.43487 78.61484 41.281048 80.0 41.5 C 77.79905 39.184616 73.28633 38.41208 70.0 39.25 Z M 78.0 26.458252 C 78.7167 27.320116 79.76558 28.220997 80.60472 29.104721 C 81.27379 29.720518 82.13524 30.577122 83.0 30.5 C 81.36878 29.097322 79.79216 26.89695 78.0 26.0 C 78.0 26.171082 78.0 26.323832 78.0 26.458252 Z M 81.0 42.4375 C 81.359116 42.85035 81.64779 42.739502 82.0 42.5 C 81.64963 42.2274 81.33189 42.1112 81.0 42.4375 Z M 88.5 38.0 C 88.69034 36.432972 88.92598 34.876312 88.979034 33.29699 C 88.943 32.10977 89.277855 30.349989 88.0 30.0 C 87.89783 32.694675 88.06725 35.35011 88.5 38.0 Z M 89.0 39.4375 C 89.359116 39.85035 89.64779 39.739502 90.0 39.5 C 89.64963 39.2274 89.33189 39.1112 89.0 39.4375 Z M 90.0 41.5 C 90.74564 42.448734 91.69964 43.159904 92.851456 43.504593 C 94.129326 43.62679 95.17443 42.192078 96.0 41.5 C 95.1973 41.530922 94.08659 42.29838 93.10229 42.5243 C 91.868195 42.550983 91.024254 41.48086 90.0 41.0 C 90.0 41.14352 90.0 41.35648 90.0 41.5 Z M 96.0 39.4375 C 96.359116 39.85035 96.64779 39.739502 97.0 39.5 C 96.64963 39.2274 96.33189 39.1112 96.0 39.4375 Z M 104.0 27.375 C 105.94852 30.18374 107.883545 34.273945 108.5 38.0 C 108.90155 36.021584 108.81589 33.98692 108.17884 32.0661 C 107.646 30.300388 106.431984 28.784025 106.0 27.0 C 105.40922 27.0 104.641815 27.0 104.0 27.0 C 104.0 27.121319 104.0 27.263681 104.0 27.375 Z M 109.5 41.0 C 109.794556 40.35721 109.984505 39.70184 110.0 39.0 C 109.10621 39.081524 108.925545 39.79694 109.16667 40.481335 C 109.291115 40.67497 109.40222 40.84786 109.5 41.0 Z M 113.0 26.25 C 113.87585 27.231853 115.73063 26.833416 117.137115 26.974861 C 121.75843 27.02321 126.39036 26.985168 131.0 27.0 C 131.0 32.336956 131.0 37.670288 131.0 43.0 C 125.001884 43.166615 118.99056 43.333595 113.0 43.5 C 119.67582 43.644382 126.32528 43.92972 133.0 44.0 C 133.0 38.00463 133.0 31.99537 133.0 26.0 C 129.5899 26.0 126.20379 26.0 122.8 26.0 C 121.02869 25.999163 119.26695 25.998701 117.49707 26.00641 C 116.180786 26.150763 114.391754 25.822714 113.0 26.25 Z M 133.0 24.4375 C 133.35912 24.850351 133.64778 24.7395 134.0 24.5 C 133.64963 24.227404 133.3319 24.111198 133.0 24.4375 Z M 137.0 23.4375 C 137.35912 23.850351 137.64778 23.7395 138.0 23.5 C 137.64963 23.227404 137.3319 23.111198 137.0 23.4375 Z M 142.0 41.375 C 142.70946 42.107395 143.74007 42.00846 144.6943 42.146606 C 150.05727 42.73122 157.3865 44.525932 163.0 45.5 C 160.56207 43.59155 156.27145 43.362198 152.80336 42.457844 C 150.80965 42.07729 148.7767 41.723743 146.7751 41.49103 C 145.25502 41.495884 143.32408 40.814053 142.0 41.375 Z M 145.0 24.375 C 145.9152 25.213076 147.62877 25.115213 148.89328 25.474827 C 151.51299 25.957758 154.1413 26.249788 156.77126 26.603905 C 158.50851 26.691914 160.38167 27.367968 162.0 27.5 C 159.93822 25.706152 156.22137 25.633865 153.17102 25.116632 C 151.734 24.91107 149.90419 24.63681 148.34297 24.428204 C 147.25807 24.334595 145.93782 23.950253 145.0 24.375 Z M 145.0 32.3125 C 145.48604 33.223392 146.90906 32.724773 147.68732 32.681057 C 148.12572 32.62059 148.56953 32.559376 149.0 32.5 C 147.65103 32.33122 146.34087 32.098698 145.0 32.0 C 145.0 32.116665 145.0 32.220833 145.0 32.3125 Z M 150.0 33.25 C 151.17143 34.40654 153.65309 34.039078 155.4187 34.559814 C 157.04433 34.70959 158.47275 35.318466 160.0 35.5 C 158.756 34.257595 157.05383 33.728683 155.33401 33.54529 C 153.63136 33.479103 151.55156 32.80166 150.0 33.25 Z " />
</g>
</svg>
