<?xml version="1.0" encoding="UTF-8" standalone="no"?>
<!-- Created with Inkscape (http://www.inkscape.org/) -->

<svg
   xmlns:dc="http://purl.org/dc/elements/1.1/"
   xmlns:cc="http://creativecommons.org/ns#"
   xmlns:rdf="http://www.w3.org/1999/02/22-rdf-syntax-ns#"
   xmlns:svg="http://www.w3.org/2000/svg"
   xmlns="http://www.w3.org/2000/svg"
   xmlns:xlink="http://www.w3.org/1999/xlink"
   xmlns:sodipodi="http://sodipodi.sourceforge.net/DTD/sodipodi-0.dtd"
   xmlns:inkscape="http://www.inkscape.org/namespaces/inkscape"
   width="31.551563mm"
   height="5.3578124mm"
   viewBox="0 0 111.79688 18.984374"
   id="svg2"
   version="1.1"
   inkscape:version="0.91 r13725"
   sodipodi:docname="moyaserugomi.svg">
  <defs
     id="defs4">
    <linearGradient
       inkscape:collect="always"
       id="linearGradient4144">
      <stop
         style="stop-color:#000000;stop-opacity:1;"
         offset="0"
         id="stop4146" />
      <stop
         style="stop-color:#000000;stop-opacity:0;"
         offset="1"
         id="stop4148" />
    </linearGradient>
    <linearGradient
       inkscape:collect="always"
       xlink:href="#linearGradient4144"
       id="linearGradient4150"
       x1="82.669922"
       y1="343.76367"
       x2="195.46681"
       y2="343.76367"
       gradientUnits="userSpaceOnUse" />
  </defs>
  <sodipodi:namedview
     id="base"
     pagecolor="#ffffff"
     bordercolor="#666666"
     borderopacity="1.0"
     inkscape:pageopacity="0.0"
     inkscape:pageshadow="2"
     inkscape:zoom="3.959798"
     inkscape:cx="-8.773627"
     inkscape:cy="2.4603164"
     inkscape:document-units="px"
     inkscape:current-layer="layer1"
     showgrid="false"
     fit-margin-top="0"
     fit-margin-left="0"
     fit-margin-right="0"
     fit-margin-bottom="0"
     inkscape:window-width="1366"
     inkscape:window-height="706"
     inkscape:window-x="-8"
     inkscape:window-y="-8"
     inkscape:window-maximized="1" />
  <metadata
     id="metadata7">
    <rdf:RDF>
      <cc:Work
         rdf:about="">
        <dc:format>image/svg+xml</dc:format>
        <dc:type
           rdf:resource="http://purl.org/dc/dcmitype/StillImage" />
        <dc:title />
      </cc:Work>
    </rdf:RDF>
  </metadata>
  <g
     inkscape:label="レイヤー 1"
     inkscape:groupmode="layer"
     id="layer1"
     transform="translate(-83.169922,-334.27149)">
    <g
       style="font-style:normal;font-variant:normal;font-weight:normal;font-stretch:normal;font-size:20.00000191px;line-height:125%;font-family:HGPSoeiKakupoptai;-inkscape-font-specification:'HGPSoeiKakupoptai, Normal';text-align:start;letter-spacing:0px;word-spacing:0px;writing-mode:lr-tb;text-anchor:start;fill:#000000;fill-opacity:0.07843137;stroke:none;stroke-width:1px;stroke-linecap:butt;stroke-linejoin:miter;stroke-opacity:1"
       id="flowRoot3336">
      <path
         d="m 83.248047,352.47461 1.5625,-10.3125 -1.640625,0.0781 0.07813,-4.92188 2.03125,-0.0781 -0.07813,1.875 0.546875,-4.84376 2.65625,0.39063 -0.46875,3.75 0.78125,-1.17187 0.859376,1.17187 1.5625,-3.90625 q 0.78125,0.46875 1.171875,0.46875 l 2.8125,-0.0781 q 0.78125,0 1.25,0.54688 0.625,0.78125 0.3125,1.5625 l -0.78125,2.03125 0.9375,-0.0781 1.484375,-4.45313 2.578127,0.39062 -0.46875,1.40626 q 1.25,-0.39063 1.71875,0.39062 0.3125,0.54688 0.23437,1.09375 -0.0781,0.54688 -0.54687,0.78125 -1.01563,0.70313 -1.953127,-0.46875 l -0.3125,0.85938 2.890627,0 -0.23438,1.95312 -3.281247,0.0781 -0.234375,0.85937 3.593752,2.42188 -0.9375,2.57812 -3.515627,-2.42187 -0.859375,2.8125 -2.734375,-0.70313 1.796875,-5.3125 -1.171875,0.0781 -2.1875,6.01562 -2.8125,-0.78125 1.796875,-4.53125 -0.703125,-0.23437 -0.3125,0.85937 -2.421876,-0.85937 0.390625,-1.09375 -1.171875,1.09375 -0.3125,2.8125 2.1875,2.89062 -1.40625,2.89063 -1.171875,-1.71875 -0.703125,4.60937 -2.8125,-0.78125 z m 6.328126,-5.07812 2.8125,0.46875 -0.46875,2.03125 q 0.703125,-1.64063 2.03125,-1.48438 1.5625,0.15625 1.71875,1.64063 0.07813,0.85937 -0.46875,1.5625 -0.546875,0.625 -1.328125,0.70312 -0.9375,0.0781 -1.484375,-0.46875 -0.390625,-0.39062 -0.546875,-1.48437 l -0.703125,2.89062 -3.203126,-0.54687 1.640626,-5.3125 z m 2.8125,-7.1875 0.3125,-0.70313 -0.703125,-0.3125 -0.3125,0.78125 0.703125,0.23438 z m 1.015625,-2.57813 0.390625,-0.85937 -0.9375,0.0781 -0.234375,0.54688 0.78125,0.23437 z m 5,10.15625 q 0.46875,2.42188 0.78125,4.84375 l -3.203125,0.15625 -0.3125,-4.76562 2.734375,-0.23438 z m 3.359372,-0.23437 0.78125,4.92187 -2.968747,0.0781 -0.625,-4.84375 2.812497,-0.15625 z"
         style="fill:#000000;fill-opacity:0.07843137;stroke:none;stroke-opacity:1"
         id="path4143" />
      <path
         d="m 105.51367,339.50586 -1.64062,-3.04687 3.20312,-1.32813 1.64063,3.51563 4.375,-0.85938 0.3125,-2.8125 3.35938,0.15625 -0.3125,2.34375 q 1.79687,0 2.73437,0.3125 1.48438,0.46875 1.95313,1.875 0.70312,1.95313 -0.23438,4.92188 -0.39062,1.32812 -1.25,2.57812 -0.39062,0.54688 -1.25,1.64063 l -3.4375,-1.5625 q 1.25,-1.71875 1.79688,-2.65625 1.01562,-1.79688 0.70312,-2.96875 -0.23437,-0.9375 -1.5625,-0.9375 l -0.54688,2.96875 -3.20312,-0.46875 0.54687,-2.1875 -2.65625,0.54687 2.03125,4.53125 2.34375,5.23438 -3.04687,1.32812 -4.45313,-10.15625 -2.34375,1.09375 -1.40625,-3.28125 2.34375,-0.78125 z"
         style="fill:#000000;fill-opacity:0.07843137;stroke:none;stroke-opacity:1"
         id="path4145" />
      <path
         d="m 125.2793,339.97461 0.54688,-4.60938 3.28125,-0.0781 -0.54688,4.375 4.76563,-0.15625 -0.46875,-4.0625 3.75,0.0781 0,3.98438 3.28125,0 0,2.57813 -3.28125,0.0781 0,3.125 q 0,1.5625 -1.25,2.34375 -0.85938,0.54688 -2.10938,0.625 -0.70312,0.0781 -2.1875,-0.0781 l -1.01562,-3.04688 3.35937,-0.15625 0.0781,-2.65625 -5.07813,0.39063 -0.3125,4.53125 q -0.0781,1.32812 0.70313,1.79687 0.78125,0.46875 2.1875,0.39063 l 3.51562,-0.15625 3.67188,-0.39063 0.70312,3.125 -1.79687,0.15625 q -4.375,0.39063 -5.46875,0.39063 -1.79688,0 -2.8125,-0.0781 -2.03125,-0.23437 -2.96875,-0.9375 -0.78125,-0.625 -1.01563,-1.79687 -0.15625,-0.78125 -0.0781,-2.73438 l 0.23437,-3.82812 -2.5,0.39062 0,-3.28125 2.8125,-0.3125 z"
         style="fill:#000000;fill-opacity:0.07843137;stroke:none;stroke-opacity:1"
         id="path4147" />
      <path
         d="m 149.10743,338.02149 -5.70313,0.85937 0.0781,-3.125 7.73438,-0.625 q 1.09375,-0.0781 1.71875,0 0.70312,0.0781 1.09375,0.70312 0.39062,0.70313 0.15625,1.56251 -0.23438,0.85937 -0.85938,1.25 l -3.04687,2.10937 q 1.79687,-0.23437 3.04687,-0.15625 1.48438,0.15625 2.42188,1.01563 1.25,1.09375 1.48437,2.89062 0.23438,1.64063 -0.39062,3.20313 -1.01563,2.57812 -3.75,3.82812 -1.875,0.85938 -3.51563,1.01563 -1.71875,0.15625 -3.20312,-0.3125 -2.18751,-0.70313 -2.42188,-2.65625 -0.23438,-2.03125 1.40625,-3.35938 1.01563,-0.78125 2.42188,-1.01562 1.64062,-0.23438 3.125,0.15625 1.64062,0.46875 2.10937,2.1875 1.09375,-1.17188 0.9375,-2.26563 -0.23437,-1.48437 -1.64062,-1.95312 -1.17188,-0.39063 -2.96875,0.0781 -1.875,0.46875 -3.59375,1.32813 -1.09376,0.54687 -2.81251,1.5625 l -2.03125,-2.96875 8.20313,-5.3125 z m -1.01562,11.64062 q 1.09375,0.3125 2.57812,-0.39062 -0.39062,-1.01563 -1.09375,-1.32813 -0.625,-0.3125 -1.32812,-0.15625 -0.70313,0.15625 -1.01563,0.70313 -0.39062,0.78125 0.85938,1.17187 z"
         style="fill:#000000;fill-opacity:0.07843137;stroke:none;stroke-opacity:1"
         id="path4149" />
      <path
         d="m 161.68555,344.89649 q 0.54688,1.64062 1.09375,2.34375 0.62501,0.78125 1.71876,1.25 2.1875,0.85937 5.07812,0.23437 1.64063,-0.3125 4.14063,-1.40625 l 1.71875,3.4375 q -3.28125,1.17188 -5.46875,1.48438 -3.20313,0.39062 -5.46875,0 -2.03126,-0.39063 -3.90626,-2.03125 -1.09375,-0.9375 -1.5625,-2.26563 -0.3125,-0.85937 -0.70312,-2.42187 l 3.35937,-0.625 z m 7.81251,-9.21876 q 0.54687,0 1.875,0.15625 l 1.09375,3.12501 1.32812,-0.3125 q 0.0781,0.9375 0,1.17187 -0.0781,0.46875 -0.3125,1.09375 l -1.01562,2.57813 -3.59375,-0.70313 1.32812,-3.90625 q -2.57812,0 -4.375,0.23438 -1.48437,0.15625 -5.07813,1.09375 l -0.54687,-3.20313 q 3.4375,-0.78125 5.3125,-1.01563 2.57813,-0.3125 3.98438,-0.3125 z m 3.75,-0.625 1.09375,3.12501 -1.64063,0.39062 -1.09375,-3.125 1.64063,-0.39063 z m 2.1875,-0.46875 1.17187,3.20313 -1.79687,0.39063 -1.01563,-3.20313 1.64063,-0.39063 z"
         style="fill:#000000;fill-opacity:0.07843137;stroke:none;stroke-opacity:1"
         id="path4151" />
      <path
         d="m 183.48243,338.33399 -5.54688,1.25 -0.23437,-3.75001 5.39063,-0.625 q 1.71875,-0.15625 2.8125,0.625 1.17187,0.85938 1.09375,2.50001 l -0.23438,3.59375 2.8125,0.3125 0.54688,-5.46875 3.125,0.54687 -0.625,5.78125 2.34375,0.70313 -0.70313,3.04687 -2.10937,-0.85937 -1.25,6.48437 -3.35938,-0.625 1.5625,-6.71875 -2.65625,-0.39062 q -0.54687,2.8125 -1.17187,4.14062 -1.09375,2.42188 -3.125,3.04688 -2.10938,0.625 -3.67188,-0.85938 -1.17188,-1.17187 -1.25,-3.20312 0,-1.95313 0.9375,-3.51563 1.01562,-1.48437 2.42187,-2.10937 1.09375,-0.46875 2.73438,-0.46875 l 0.15625,-3.4375 z m -0.9375,8.67187 q 0.23438,-0.70312 0.46875,-2.26562 -1.5625,0 -2.26563,0.9375 -0.85937,1.09375 -0.625,2.26562 0.23438,1.17188 1.25,0.78125 0.78126,-0.3125 1.17188,-1.71875 z"
         style="fill:#000000;fill-opacity:0.07843137;stroke:none;stroke-opacity:1"
         id="path4153" />
    </g>
  </g>
</svg>
