<?xml version="1.0" encoding="UTF-8" standalone="no"?>
<!-- Created with Inkscape (http://www.inkscape.org/) -->

<svg
   xmlns:dc="http://purl.org/dc/elements/1.1/"
   xmlns:cc="http://creativecommons.org/ns#"
   xmlns:rdf="http://www.w3.org/1999/02/22-rdf-syntax-ns#"
   xmlns:svg="http://www.w3.org/2000/svg"
   xmlns="http://www.w3.org/2000/svg"
   xmlns:sodipodi="http://sodipodi.sourceforge.net/DTD/sodipodi-0.dtd"
   xmlns:inkscape="http://www.inkscape.org/namespaces/inkscape"
   width="55.496353mm"
   height="8.0367184mm"
   viewBox="0 0 196.64062 28.476561"
   id="svg2"
   version="1.1"
   inkscape:version="0.91 r13725"
   sodipodi:docname="moyasanaigomi.svg">
  <defs
     id="defs4" />
  <sodipodi:namedview
     id="base"
     pagecolor="#ffffff"
     bordercolor="#666666"
     borderopacity="1.0"
     inkscape:pageopacity="0.0"
     inkscape:pageshadow="2"
     inkscape:zoom="2.8"
     inkscape:cx="-4.9855886"
     inkscape:cy="-16.017901"
     inkscape:document-units="px"
     inkscape:current-layer="layer1"
     showgrid="false"
     fit-margin-top="0"
     fit-margin-left="0"
     fit-margin-right="0"
     fit-margin-bottom="0"
     inkscape:window-width="1366"
     inkscape:window-height="706"
     inkscape:window-x="-8"
     inkscape:window-y="-8"
     inkscape:window-maximized="1" />
  <metadata
     id="metadata7">
    <rdf:RDF>
      <cc:Work
         rdf:about="">
        <dc:format>image/svg+xml</dc:format>
        <dc:type
           rdf:resource="http://purl.org/dc/dcmitype/StillImage" />
        <dc:title></dc:title>
      </cc:Work>
    </rdf:RDF>
  </metadata>
  <g
     inkscape:label="レイヤー 1"
     inkscape:groupmode="layer"
     id="layer1"
     transform="translate(-77.611328,-353.79687)">
    <g
       style="font-style:normal;font-variant:normal;font-weight:normal;font-stretch:normal;font-size:30px;line-height:125%;font-family:HGPSoeiKakupoptai;-inkscape-font-specification:'HGPSoeiKakupoptai, Normal';text-align:start;letter-spacing:0px;word-spacing:0px;writing-mode:lr-tb;text-anchor:start;fill:#000000;fill-opacity:1;stroke:none;stroke-width:1px;stroke-linecap:butt;stroke-linejoin:miter;stroke-opacity:1"
       id="flowRoot4136">
      <path
         d="m 77.728516,381.10156 2.34375,-15.46875 -2.460938,0.11719 0.117188,-7.38281 3.046875,-0.11719 -0.117188,2.8125 0.820313,-7.26563 3.984375,0.58594 -0.703125,5.625 1.171875,-1.75781 1.289062,1.75781 2.34375,-5.85937 q 1.171875,0.70312 1.757813,0.70312 l 4.21875,-0.11719 q 1.171875,0 1.875,0.82032 0.9375,1.17187 0.46875,2.34375 l -1.171875,3.04687 1.40625,-0.11719 2.226559,-6.67968 3.86719,0.58593 -0.70312,2.10938 q 1.875,-0.58594 2.57812,0.58594 0.46875,0.82031 0.35156,1.64062 -0.11718,0.82031 -0.82031,1.17188 -1.52344,1.05468 -2.92969,-0.70313 l -0.46875,1.28906 4.33594,0 -0.35156,2.92969 -4.92188,0.11719 -0.35156,1.28906 5.39063,3.63281 -1.40625,3.86719 -5.273442,-3.63281 -1.289062,4.21875 -4.101563,-1.05469 2.695313,-7.96875 -1.757813,0.11719 -3.28125,9.02344 -4.21875,-1.17188 2.695313,-6.79687 -1.054688,-0.35157 -0.46875,1.28907 -3.632812,-1.28907 0.585937,-1.64062 -1.757812,1.64062 -0.46875,4.21875 3.28125,4.33594 -2.109375,4.33594 -1.757813,-2.57813 -1.054687,6.91407 -4.21875,-1.17188 z m 9.492187,-7.61719 4.21875,0.70313 -0.703125,3.04687 q 1.054688,-2.46093 3.046875,-2.22656 2.34375,0.23438 2.578125,2.46094 0.117188,1.28906 -0.703125,2.34375 -0.820312,0.9375 -1.992187,1.05469 -1.40625,0.11718 -2.226563,-0.70313 -0.585937,-0.58594 -0.820312,-2.22656 l -1.054688,4.33594 -4.804687,-0.82032 2.460937,-7.96875 z m 4.21875,-10.78125 0.46875,-1.05468 -1.054687,-0.46875 -0.46875,1.17187 1.054687,0.35156 z m 1.523438,-3.86718 0.585937,-1.28907 -1.40625,0.11719 -0.351562,0.82031 1.171875,0.35157 z m 7.499999,15.23437 q 0.70313,3.63281 1.17188,7.26563 l -4.804692,0.23437 -0.46875,-7.14844 4.101562,-0.35156 z m 5.03906,-0.35156 1.17188,7.38281 -4.45313,0.11719 -0.9375,-7.26563 4.21875,-0.23437 z"
         style=""
         id="path3338" />
      <path
         d="m 111.12695,361.64844 -2.46093,-4.57032 4.80468,-1.99218 2.46094,5.27343 6.5625,-1.28906 0.46875,-4.21875 5.03906,0.23438 -0.46875,3.51562 q 2.69532,0 4.10157,0.46875 2.22656,0.70313 2.92968,2.8125 1.05469,2.92969 -0.35156,7.38281 -0.58594,1.99219 -1.875,3.86719 -0.58594,0.82031 -1.875,2.46094 L 125.30664,373.25 q 1.875,-2.57813 2.69531,-3.98438 1.52344,-2.69531 1.05469,-4.45312 -0.35156,-1.40625 -2.34375,-1.40625 l -0.82031,4.45312 -4.80469,-0.70312 0.82031,-3.28125 -3.98437,0.82031 3.04687,6.79688 3.51563,7.85156 -4.57031,1.99219 -6.67969,-15.23438 -3.51563,1.64063 -2.10937,-4.92188 3.51562,-1.17187 z"
         style=""
         id="path3340" />
      <path
         d="m 142.18164,371.375 q 0.70313,1.64062 1.17188,2.34375 0.82031,1.17187 1.99218,1.75781 2.69532,1.40625 7.38282,0.82031 1.99218,-0.23437 3.28125,-0.82031 1.17187,-0.58594 3.16406,-2.22656 l 3.75,3.51562 q -1.64063,1.64063 -2.92969,2.46094 -1.64062,1.05469 -3.86719,1.40625 -2.34375,0.35156 -5.85937,0.35156 -5.74219,-0.11718 -8.67188,-1.99218 -1.75781,-1.05469 -2.92968,-2.69532 -0.9375,-1.28906 -2.10938,-3.86718 l 5.625,-1.05469 z m 5.74219,-11.25 -1.75781,-4.21875 4.92187,-1.05469 2.34375,5.27344 8.90625,0 0,4.21875 -7.26562,0.11719 2.69531,6.5625 -4.57031,1.40625 -3.28125,-7.61719 -13.24219,1.52344 0.11719,-5.50782 11.13281,-0.70312 z"
         style=""
         id="path3342" />
      <path
         d="m 168.90039,359.1875 1.64063,-4.10156 4.6875,0.9375 -1.17188,2.92968 4.10156,-0.11718 -0.23437,3.39843 -5.27344,0.46875 -3.75,12.42188 -4.45312,-1.52344 2.92968,-10.19531 -2.92968,0.58594 0,-4.33594 4.45312,-0.46875 z m 11.48438,3.63281 4.92187,0.35156 0.23438,4.21875 5.03906,1.75782 -1.28906,4.6875 -3.63282,-1.52344 q -0.11718,3.16406 -0.9375,4.6875 -1.17187,1.99219 -3.28125,3.28125 -2.10937,1.17187 -4.33593,1.17187 -4.10157,-0.11718 -5.74219,-3.39843 -1.64063,-3.28125 -0.11719,-6.21094 1.28906,-2.46094 4.21875,-3.63281 1.875,-0.70313 5.50781,-1.17188 l -0.58593,-4.21875 z m -0.23438,12.89063 q 0.9375,-1.17188 1.05469,-3.75 -2.10938,-0.11719 -3.16406,0.11718 -1.64063,0.35157 -2.34375,1.64063 -0.46875,0.82031 -0.11719,1.75781 0.46875,1.17188 1.52344,1.40625 1.75781,0.46875 3.04687,-1.17187 z m 2.46094,-20.625 7.96875,4.80468 -2.46094,3.28125 -8.32031,-5.15625 2.8125,-2.92968 z"
         style=""
         id="path3344" />
      <path
         d="m 199.7207,356.72656 q -1.875,4.80469 -2.46093,7.61719 -0.58594,2.57812 -0.35157,8.4375 l 3.04688,-5.15625 3.98437,2.57812 -3.39843,6.44532 q -1.05469,1.99218 -1.64063,2.69531 -0.9375,1.17187 -2.22656,1.40625 -2.57813,0.35156 -3.75,-3.16406 -0.70313,-2.22657 -0.82031,-5.85938 -0.11719,-4.33594 0.58593,-8.32031 0.58594,-3.04688 2.46094,-8.4375 l 4.57031,1.75781 z m 15,-1.05469 q 1.40625,5.27344 1.99219,9.02344 0.70313,4.21875 1.05469,11.48438 l -5.15625,0.11718 q -0.23438,-7.03125 -0.70313,-10.3125 -0.46875,-2.92968 -2.10937,-9.25781 l 4.92187,-1.05469 z"
         style=""
         id="path3346" />
      <path
         d="m 224.33008,369.73437 q 0.82031,2.46094 1.64062,3.51563 0.9375,1.17187 2.57813,1.875 3.28125,1.28906 7.61719,0.35156 2.46093,-0.46875 6.21093,-2.10937 l 2.57813,5.15625 q -4.92188,1.75781 -8.20313,2.22656 -4.80468,0.58594 -8.20312,0 -3.04688,-0.58594 -5.85938,-3.04688 -1.64062,-1.40625 -2.34375,-3.39843 -0.46875,-1.28907 -1.05468,-3.63282 l 5.03906,-0.9375 z m 11.71875,-13.82812 q 0.82031,0 2.8125,0.23437 l 1.64062,4.6875 1.99219,-0.46875 q 0.11719,1.40625 0,1.75782 -0.11719,0.70312 -0.46875,1.64062 l -1.52344,3.86719 -5.39062,-1.05469 1.99219,-5.85937 q -3.86719,0 -6.5625,0.35156 -2.22657,0.23437 -7.61719,1.64062 l -0.82031,-4.80468 q 5.15625,-1.17188 7.96875,-1.52344 3.86718,-0.46875 5.97656,-0.46875 z m 5.625,-0.9375 1.64062,4.6875 -2.46093,0.58594 -1.64063,-4.6875 2.46094,-0.58594 z m 3.28125,-0.70313 1.75781,4.80469 -2.69531,0.58594 -1.52344,-4.80469 2.46094,-0.58594 z"
         style=""
         id="path3348" />
      <path
         d="m 257.02539,359.89062 -8.32031,1.875 -0.35156,-5.625 8.08593,-0.9375 q 2.57813,-0.23437 4.21875,0.9375 1.75782,1.28907 1.64063,3.75 l -0.35156,5.39063 4.21875,0.46875 0.82031,-8.20313 4.6875,0.82032 -0.9375,8.67187 3.51562,1.05469 -1.05468,4.57031 -3.16407,-1.28906 -1.875,9.72656 -5.03906,-0.9375 2.34375,-10.07812 -3.98437,-0.58594 q -0.82032,4.21875 -1.75782,6.21094 -1.64062,3.63281 -4.6875,4.57031 -3.16406,0.9375 -5.50781,-1.28906 -1.75781,-1.75782 -1.875,-4.80469 0,-2.92969 1.40625,-5.27344 1.52344,-2.22656 3.63281,-3.16406 1.64063,-0.70313 4.10157,-0.70313 l 0.23437,-5.15625 z m -1.40625,13.00782 q 0.35156,-1.05469 0.70313,-3.39844 -2.34375,0 -3.39844,1.40625 -1.28906,1.64062 -0.9375,3.39844 0.35156,1.75781 1.875,1.17187 1.17187,-0.46875 1.75781,-2.57812 z"
         style=""
         id="path3350" />
    </g>
  </g>
</svg>
