<?xml version="1.0" encoding="UTF-8" standalone="no"?>
<!-- Created with Inkscape (http://www.inkscape.org/) -->

<svg
   xmlns:dc="http://purl.org/dc/elements/1.1/"
   xmlns:cc="http://creativecommons.org/ns#"
   xmlns:rdf="http://www.w3.org/1999/02/22-rdf-syntax-ns#"
   xmlns:svg="http://www.w3.org/2000/svg"
   xmlns="http://www.w3.org/2000/svg"
   xmlns:sodipodi="http://sodipodi.sourceforge.net/DTD/sodipodi-0.dtd"
   xmlns:inkscape="http://www.inkscape.org/namespaces/inkscape"
   width="66.542709mm"
   height="10.495139mm"
   viewBox="0 0 235.78125 37.187501"
   id="svg2"
   version="1.1"
   inkscape:version="0.91 r13725"
   sodipodi:docname="moyaserugomi.svg">
  <defs
     id="defs4" />
  <sodipodi:namedview
     id="base"
     pagecolor="#ffffff"
     bordercolor="#666666"
     borderopacity="1.0"
     inkscape:pageopacity="0.0"
     inkscape:pageshadow="2"
     inkscape:zoom="0.35"
     inkscape:cx="332.65625"
     inkscape:cy="-258.83876"
     inkscape:document-units="px"
     inkscape:current-layer="layer1"
     showgrid="false"
     fit-margin-top="0"
     fit-margin-left="0"
     fit-margin-right="0"
     fit-margin-bottom="0"
     inkscape:window-width="1366"
     inkscape:window-height="706"
     inkscape:window-x="-8"
     inkscape:window-y="-8"
     inkscape:window-maximized="1" />
  <metadata
     id="metadata7">
    <rdf:RDF>
      <cc:Work
         rdf:about="">
        <dc:format>image/svg+xml</dc:format>
        <dc:type
           rdf:resource="http://purl.org/dc/dcmitype/StillImage" />
        <dc:title></dc:title>
      </cc:Work>
    </rdf:RDF>
  </metadata>
  <g
     inkscape:label="レイヤー 1"
     inkscape:groupmode="layer"
     id="layer1"
     transform="translate(-42.34375,-236.33594)">
    <g
       style="font-style:normal;font-variant:normal;font-weight:normal;font-stretch:normal;font-size:40px;line-height:125%;font-family:sans-serif;-inkscape-font-specification:'sans-serif, Normal';text-align:start;letter-spacing:0px;word-spacing:0px;writing-mode:lr-tb;text-anchor:start;fill:#000000;fill-opacity:1;stroke:none;stroke-width:1px;stroke-linecap:butt;stroke-linejoin:miter;stroke-opacity:1"
       id="flowRoot3336">
      <path
         d="m 76.25,262.42969 q -4.84375,-3.90625 -7.03125,-8.75 -1.875,6.40625 -7.03125,9.6875 l -1.875,-2.5 q 6.40625,-4.84375 6.875,-12.03125 l -3.90625,0 q -1.40625,8.75 -8.90625,14.0625 l -1.71875,-2.1875 q 4.21875,-2.96875 5.625,-5.78125 l -2.96875,-2.65625 q -0.46875,1.09375 -1.875,2.8125 l -1.875,-2.03125 q 3.75,-4.375 4.53125,-15.15625 l 2.8125,0.3125 q 1.09375,0.3125 -0.3125,0.78125 l -0.3125,2.5 5.9375,0 q 0,2.65625 -0.46875,4.84375 l 3.4375,0 0,-8.4375 2.96875,0 q 1.25,0.15625 0.15625,0.9375 l 0,7.5 6.71875,0 0,2.5 -6.71875,0 q 1.09375,6.09375 7.65625,10.78125 L 76.25,262.42969 Z M 60,272.27344 q 0.3125,-3.59375 -0.3125,-7.5 l 2.65625,-0.15625 q 1.25,3.4375 0.9375,7.34375 L 60,272.27344 Z m -2.65625,-7.03125 q -0.78125,4.375 -3.125,7.8125 l -2.65625,-1.71875 q 2.1875,-3.125 3.28125,-7.1875 l 2.5,1.09375 z M 59.375,252.89844 q 0.46875,-0.78125 0.9375,-2.65625 l -3.4375,-2.1875 -0.78125,2.34375 3.28125,2.5 z m -13.59375,-6.40625 q 1.25,0.15625 0,0.9375 0.15625,5.78125 -0.9375,10 l -2.5,-1.71875 q 1.09375,-4.53125 0.9375,-9.6875 l 2.5,0.46875 z m 7.03125,-2.5 1.25,2.34375 q 0.625,1.25 -0.46875,0.78125 L 50,249.92969 l 0,11.40625 q 2.03125,1.40625 3.4375,3.90625 l -1.71875,2.8125 q -1.40625,-2.34375 -2.5,-3.4375 -0.9375,5.3125 -4.53125,8.90625 l -2.03125,-2.5 q 4.6875,-4.84375 4.6875,-11.71875 l 0,-21.40625 2.5,0 q 1.25,0.15625 0.15625,0.9375 l 0,7.96875 2.8125,-2.8125 z m 20.46875,-4.21875 q 1.40625,0.9375 2.96875,3.28125 l -2.34375,1.5625 Q 73.4375,243.21094 71.25,241.17969 l 2.03125,-1.40625 z m -15.3125,4.21875 -0.46875,2.1875 3.4375,1.875 q 0.3125,-1.40625 0.625,-4.0625 l -3.59375,0 z m 16.71875,27.96875 q -1.5625,-4.0625 -4.0625,-7.1875 l 2.5,-1.09375 q 2.8125,2.8125 4.6875,6.875 l -3.125,1.40625 z m -6.71875,-7.5 q 1.5625,2.96875 2.5,6.71875 l -3.28125,0.625 q -0.625,-3.90625 -1.875,-6.875 l 2.65625,-0.46875 z"
         id="path3345"
         inkscape:connector-curvature="0" />
      <path
         d="M 91.40625,249.92969 Q 90.625,246.49219 90,240.39844 l 3.28125,0 q 1.5625,0.3125 0.3125,1.25 0,2.5 0.9375,7.1875 l 7.8125,-2.8125 0.3125,-7.1875 2.96875,0 q 1.71875,0.3125 0.3125,1.25 l -0.46875,5.3125 q 1.40625,-0.3125 2.8125,-0.3125 4.53125,0 6.875,2.34375 2.5,2.5 2.5,6.40625 0,3.75 -1.875,5.625 -2.34375,2.34375 -6.09375,2.34375 -5,0 -7.96875,-2.65625 l 1.40625,-2.96875 q 3.4375,2.34375 6.25,2.34375 2.5,0 4.0625,-1.5625 0.9375,-0.9375 0.9375,-3.125 0,-2.5 -1.5625,-4.0625 -1.71875,-1.71875 -4.53125,-1.71875 -3.125,0 -6.25,1.25 l -6.71875,2.65625 q 2.65625,10.15625 6.71875,18.4375 l -3.59375,1.40625 q -3.59375,-8.4375 -6.25,-18.59375 l -7.5,3.125 -1.71875,-3.125 8.4375,-3.28125 z"
         id="path3347"
         inkscape:connector-curvature="0" />
      <path
         d="m 148.4375,258.05469 q 0,4.375 -4.21875,4.375 l -5.15625,0 -0.625,-3.4375 5.3125,0 q 1.5625,0 1.5625,-1.5625 l 0,-5 -11.71875,0.78125 0,11.40625 q 0,2.8125 2.96875,2.8125 l 15.3125,0 -0.625,3.4375 -14.84375,0 q -5.9375,0 -5.9375,-5.9375 l 0,-11.40625 -7.8125,0.625 -0.46875,-3.28125 8.28125,-0.46875 0,-7.96875 2.8125,0 q 1.5625,0.3125 0.3125,1.25 l 0,6.5625 11.71875,-0.78125 0,-9.21875 2.8125,0 q 1.5625,0.3125 0.3125,1.25 l 0,7.8125 8.4375,-0.46875 0.3125,3.28125 -8.75,0.15625 0,5.78125 z"
         id="path3349"
         inkscape:connector-curvature="0" />
      <path
         d="m 185.15625,268.83594 q 2.5,-0.3125 4.21875,-2.03125 1.875,-1.875 1.875,-5 0,-3.4375 -2.03125,-5.46875 -2.03125,-2.03125 -6.40625,-2.03125 -5.15625,0 -7.96875,2.03125 -2.65625,1.875 -6.875,6.71875 l -2.65625,-2.34375 q 11.25,-11.25 17.03125,-18.75 -5.15625,0.625 -10.3125,1.09375 l -1.09375,-3.59375 q 7.65625,0 13.59375,-0.78125 l 1.40625,-0.625 1.71875,1.71875 q 1.71875,1.5625 -0.78125,2.03125 -4.6875,5.3125 -9.375,10.46875 3.28125,-0.78125 5.46875,-0.78125 5.9375,0 8.75,2.8125 2.8125,2.8125 2.8125,7.1875 0,4.53125 -2.5,7.03125 -3.75,3.75 -9.53125,3.75 -5.46875,0 -7.96875,-2.5 -2.03125,-2.03125 -2.03125,-4.84375 0,-1.875 1.40625,-3.28125 1.5625,-1.5625 3.59375,-1.5625 2.8125,0 4.6875,1.875 2.1875,2.1875 2.96875,6.875 z m -3.125,0.46875 q -0.46875,-4.0625 -1.875,-5.46875 -1.09375,-1.09375 -2.1875,-1.09375 -1.25,0 -1.875,0.625 -0.78125,0.78125 -0.78125,1.71875 0,1.40625 1.25,2.65625 1.5625,1.5625 4.0625,1.5625 0.625,0 1.40625,0 z"
         id="path3351"
         inkscape:connector-curvature="0" />
      <path
         d="m 233.28125,266.17969 0,3.4375 -17.1875,0 q -4.84375,0 -6.71875,-1.875 -1.875,-1.875 -1.875,-5 0,-1.71875 0.625,-4.0625 l 3.59375,0.46875 q -0.78125,2.5 -0.78125,3.59375 0,1.40625 0.9375,2.34375 1.09375,1.09375 4.375,1.09375 l 17.03125,0 z m -23.4375,-19.53125 0,-3.4375 20.3125,0 0,3.4375 -20.3125,0 z m 23.28125,-10.3125 q 2.65625,1.40625 5.9375,3.90625 l -1.40625,2.1875 q -3.4375,-2.5 -5.9375,-3.90625 l 1.40625,-2.1875 z m -2.1875,3.59375 q 2.65625,1.40625 5.9375,3.90625 l -1.40625,2.1875 q -3.4375,-2.5 -5.9375,-3.90625 l 1.40625,-2.1875 z"
         id="path3353"
         inkscape:connector-curvature="0" />
      <path
         d="m 270.625,259.77344 q -1.5625,7.03125 -6.09375,12.03125 l -3.28125,-1.875 q 4.84375,-4.53125 6.40625,-11.25 -5.46875,-2.03125 -11.09375,-2.8125 -4.21875,9.0625 -5.625,10.46875 -1.875,1.875 -4.375,1.875 -1.875,0 -3.125,-1.25 -1.40625,-1.40625 -1.40625,-4.21875 0,-3.28125 3.125,-6.40625 3.4375,-3.4375 9.21875,-3.4375 1.875,-4.84375 3.4375,-9.0625 -4.375,1.09375 -8.75,2.03125 l -1.40625,-3.125 q 5.15625,-0.625 9.84375,-1.71875 l 1.875,-0.78125 2.65625,2.03125 q 1.5625,0.9375 -0.15625,1.40625 -2.03125,3.59375 -4.375,9.375 5,0.625 10.625,2.5 0.3125,-3.75 0.15625,-9.21875 l 2.96875,0.625 q 1.71875,0.3125 0.3125,1.25 0,5.15625 -0.3125,8.4375 2.96875,1.09375 6.875,3.125 l -1.5625,3.125 q -3.28125,-1.875 -5.9375,-3.125 z m -17.34375,-3.90625 q -3.59375,0 -5.78125,2.1875 -2.5,2.5 -2.5,4.6875 0,0.9375 0.625,1.5625 0.46875,0.46875 1.40625,0.46875 1.40625,0 2.5,-1.71875 0.9375,-1.40625 3.75,-7.1875 z"
         id="path3355"
         inkscape:connector-curvature="0" />
    </g>
  </g>
</svg>
