<?xml version="1.0" encoding="UTF-8" standalone="no"?>
<!-- Created with Inkscape (http://www.inkscape.org/) -->

<svg
   xmlns:dc="http://purl.org/dc/elements/1.1/"
   xmlns:cc="http://creativecommons.org/ns#"
   xmlns:rdf="http://www.w3.org/1999/02/22-rdf-syntax-ns#"
   xmlns:svg="http://www.w3.org/2000/svg"
   xmlns="http://www.w3.org/2000/svg"
   xmlns:sodipodi="http://sodipodi.sourceforge.net/DTD/sodipodi-0.dtd"
   xmlns:inkscape="http://www.inkscape.org/namespaces/inkscape"
   width="32.543751mm"
   height="10.274652mm"
   viewBox="0 0 115.3125 36.406249"
   id="svg2"
   version="1.1"
   inkscape:version="0.91 r13725"
   sodipodi:docname="shigennuno.svg">
  <defs
     id="defs4" />
  <sodipodi:namedview
     id="base"
     pagecolor="#ffffff"
     bordercolor="#666666"
     borderopacity="1.0"
     inkscape:pageopacity="0.0"
     inkscape:pageshadow="2"
     inkscape:zoom="0.35"
     inkscape:cx="315.20117"
     inkscape:cy="-127.72353"
     inkscape:document-units="px"
     inkscape:current-layer="layer1"
     showgrid="false"
     fit-margin-top="0"
     fit-margin-left="0"
     fit-margin-right="0"
     fit-margin-bottom="0"
     inkscape:window-width="1366"
     inkscape:window-height="706"
     inkscape:window-x="-8"
     inkscape:window-y="-8"
     inkscape:window-maximized="1" />
  <metadata
     id="metadata7">
    <rdf:RDF>
      <cc:Work
         rdf:about="">
        <dc:format>image/svg+xml</dc:format>
        <dc:type
           rdf:resource="http://purl.org/dc/dcmitype/StillImage" />
        <dc:title />
      </cc:Work>
    </rdf:RDF>
  </metadata>
  <g
     inkscape:label="レイヤー 1"
     inkscape:groupmode="layer"
     id="layer1"
     transform="translate(-59.798828,-368.23242)">
    <g
       style="font-style:normal;font-variant:normal;font-weight:normal;font-stretch:normal;font-size:40px;line-height:125%;font-family:sans-serif;-inkscape-font-specification:'sans-serif, Normal';text-align:start;letter-spacing:0px;word-spacing:0px;writing-mode:lr-tb;text-anchor:start;fill:#000000;fill-opacity:1;stroke:none;stroke-width:1px;stroke-linecap:butt;stroke-linejoin:miter;stroke-opacity:1"
       id="flowRoot3336">
      <path
         d="m 81.205078,377.29492 q -1.71875,4.375 -8.90625,6.09375 l 15.78125,0 0,14.53125 -22.1875,0 0,-14.53125 5.625,0 -1.5625,-2.65625 q 8.59375,-1.25 8.90625,-6.875 l -2.65625,0 q -1.71875,2.65625 -3.75,4.21875 l -2.1875,-1.71875 q 3.59375,-3.28125 5.78125,-8.125 l 2.65625,0.9375 q 0.625,0.625 -0.46875,0.78125 l -0.625,1.40625 12.5,0 0.46875,-0.46875 2.5,1.71875 -0.78125,0.625 q -1.09375,1.875 -3.90625,4.6875 l -2.34375,-1.5625 q 1.25,-1.09375 2.34375,-2.5 l -6.5625,0 q 2.65625,5.15625 12.65625,7.03125 l -1.25,2.96875 q -8.59375,-1.5625 -12.03125,-6.5625 z m 10.9375,27.03125 q -7.1875,-1.09375 -12.03125,-4.0625 l 2.34375,-2.1875 q 5,2.5 10.625,3.125 l -0.9375,3.125 z m -31.71875,-2.65625 q 6.71875,-0.9375 11.09375,-3.59375 l 2.34375,2.1875 q 0.625,1.09375 -0.9375,0.625 -5,2.5 -11.40625,3.75 l -1.09375,-2.96875 z m 24.53125,-14.0625 0,-2.34375 -15.9375,0 0,2.34375 15.9375,0 z m -20.9375,-18.125 q 2.34375,1.09375 5.15625,2.65625 l -2.03125,2.65625 q -2.03125,-1.25 -5.15625,-2.65625 l 2.03125,-2.65625 z m -1.40625,13.75 q -0.3125,1.5625 -1.09375,0.15625 l -1.71875,-2.65625 q 4.6875,-1.71875 8.4375,-4.0625 l 1.5625,2.34375 q -3.75,2.5 -7.1875,4.21875 z m 22.34375,8.59375 0,-2.34375 -15.9375,0 0,2.34375 15.9375,0 z m 0,4.21875 0,-2.34375 -15.9375,0 0,2.34375 15.9375,0 z"
         style=""
         id="path3338" />
      <path
         d="m 107.14258,391.82617 q -1.71875,5.46875 -4.84375,11.09375 0.15625,1.71875 -0.625,0.9375 l -2.968752,-2.8125 q 3.281252,-5 5.781252,-11.40625 l 2.65625,2.1875 z m 12.34375,4.0625 q -1.25,3.59375 -4.0625,7.1875 l -2.65625,-2.1875 q 2.65625,-3.28125 4.0625,-7.34375 l 3.125,1.5625 q 0.625,0.625 -0.46875,0.78125 z m 13.28125,6.5625 q -3.4375,-3.59375 -5.78125,-7.5 l 2.8125,-1.71875 q 2.96875,4.53125 5.3125,6.40625 l -2.34375,2.8125 z m -14.53125,-16.40625 0,3.28125 10.9375,0 0,-3.28125 -10.9375,0 z m 0,-5.625 0,3.125 10.9375,0 0,-3.125 -10.9375,0 z m 4.21875,11.875 -3.4375,0 -3.4375,0 0,-14.84375 5.46875,0 0.3125,-4.0625 -8.75,0 0,18.125 q 0,7.34375 -4.375,12.96875 l -2.5,-2.8125 q 3.75,-4.6875 3.75,-11.25 l 0,-20 24.6875,0 0,2.96875 -9.0625,0 -1.09375,4.0625 7.8125,0 0,14.84375 -6.25,0 0,9.53125 q 0,2.5 -2.5,2.5 l -2.8125,0 -0.625,-2.96875 2.03125,0 q 0.78125,0 0.78125,-0.9375 l 0,-8.125 z m -20.625,-13.4375 q 3.28125,1.5625 5.625,4.0625 l -2.34375,3.28125 q -2.34375,-2.65625 -5.312502,-4.21875 l 2.031252,-3.125 z m 4.375,-1.71875 q -2.34375,-2.5 -5,-4.0625 l 1.875,-3.125 q 3.125,1.40625 5.15625,3.90625 l -2.03125,3.28125 z"
         style=""
         id="path3340" />
      <path
         d="m 152.29883,374.32617 q 1.09375,-2.8125 2.03125,-6.09375 l 3.4375,0.9375 q 0.625,0.625 -0.46875,0.78125 -0.9375,2.34375 -1.71875,4.375 l 19.53125,0 0,2.96875 -20.78125,0 q -2.5,4.84375 -3.90625,6.40625 l 7.03125,0 0,-5 2.96875,0 q 1.25,0.15625 0.15625,0.9375 l 0,4.0625 10.46875,0 0,15.15625 q 0,2.5 -2.5,2.5 l -2.96875,0 -0.46875,-2.96875 2.1875,0 q 0.625,0 0.625,-0.625 l 0,-11.09375 -7.34375,0 0,17.8125 -3.125,0 0,-17.8125 -7.03125,0 0,14.53125 -3.125,0 0,-13.4375 q -2.8125,2.96875 -5.9375,5 l -2.1875,-2.96875 q 7.34375,-4.53125 11.71875,-12.5 l -10.3125,0 0,-2.96875 11.71875,0 z"
         style=""
         id="path3342" />
    </g>
  </g>
</svg>
