<?xml version="1.0" encoding="UTF-8" standalone="no"?>
<!-- Created with Inkscape (http://www.inkscape.org/) -->

<svg
   xmlns:dc="http://purl.org/dc/elements/1.1/"
   xmlns:cc="http://creativecommons.org/ns#"
   xmlns:rdf="http://www.w3.org/1999/02/22-rdf-syntax-ns#"
   xmlns:svg="http://www.w3.org/2000/svg"
   xmlns="http://www.w3.org/2000/svg"
   xmlns:sodipodi="http://sodipodi.sourceforge.net/DTD/sodipodi-0.dtd"
   xmlns:inkscape="http://www.inkscape.org/namespaces/inkscape"
   width="32.764236mm"
   height="10.274652mm"
   viewBox="0 0 116.09375 36.406249"
   id="svg2"
   version="1.1"
   inkscape:version="0.91 r13725"
   sodipodi:docname="shigenshi.svg">
  <defs
     id="defs4" />
  <sodipodi:namedview
     id="base"
     pagecolor="#ffffff"
     bordercolor="#666666"
     borderopacity="1.0"
     inkscape:pageopacity="0.0"
     inkscape:pageshadow="2"
     inkscape:zoom="0.35"
     inkscape:cx="232.34375"
     inkscape:cy="-327.72353"
     inkscape:document-units="px"
     inkscape:current-layer="layer1"
     showgrid="false"
     fit-margin-top="0"
     fit-margin-left="0"
     fit-margin-right="0"
     fit-margin-bottom="0"
     inkscape:window-width="1366"
     inkscape:window-height="706"
     inkscape:window-x="-8"
     inkscape:window-y="-8"
     inkscape:window-maximized="1" />
  <metadata
     id="metadata7">
    <rdf:RDF>
      <cc:Work
         rdf:about="">
        <dc:format>image/svg+xml</dc:format>
        <dc:type
           rdf:resource="http://purl.org/dc/dcmitype/StillImage" />
        <dc:title />
      </cc:Work>
    </rdf:RDF>
  </metadata>
  <g
     inkscape:label="レイヤー 1"
     inkscape:groupmode="layer"
     id="layer1"
     transform="translate(-142.65625,-168.23242)">
    <g
       style="font-style:normal;font-variant:normal;font-weight:normal;font-stretch:normal;font-size:40px;line-height:125%;font-family:sans-serif;-inkscape-font-specification:'sans-serif, Normal';text-align:start;letter-spacing:0px;word-spacing:0px;writing-mode:lr-tb;text-anchor:start;fill:#000000;fill-opacity:1;stroke:none;stroke-width:1px;stroke-linecap:butt;stroke-linejoin:miter;stroke-opacity:1"
       id="flowRoot3336">
      <path
         d="m 164.0625,177.29492 q -1.71875,4.375 -8.90625,6.09375 l 15.78125,0 0,14.53125 -22.1875,0 0,-14.53125 5.625,0 -1.5625,-2.65625 q 8.59375,-1.25 8.90625,-6.875 l -2.65625,0 q -1.71875,2.65625 -3.75,4.21875 l -2.1875,-1.71875 q 3.59375,-3.28125 5.78125,-8.125 l 2.65625,0.9375 q 0.625,0.625 -0.46875,0.78125 l -0.625,1.40625 12.5,0 0.46875,-0.46875 2.5,1.71875 -0.78125,0.625 q -1.09375,1.875 -3.90625,4.6875 l -2.34375,-1.5625 q 1.25,-1.09375 2.34375,-2.5 l -6.5625,0 q 2.65625,5.15625 12.65625,7.03125 l -1.25,2.96875 Q 167.5,182.29492 164.0625,177.29492 Z M 175,204.32617 q -7.1875,-1.09375 -12.03125,-4.0625 l 2.34375,-2.1875 q 5,2.5 10.625,3.125 l -0.9375,3.125 z m -31.71875,-2.65625 Q 150,200.73242 154.375,198.07617 l 2.34375,2.1875 q 0.625,1.09375 -0.9375,0.625 -5,2.5 -11.40625,3.75 l -1.09375,-2.96875 z m 24.53125,-14.0625 0,-2.34375 -15.9375,0 0,2.34375 15.9375,0 z m -20.9375,-18.125 q 2.34375,1.09375 5.15625,2.65625 L 150,174.79492 q -2.03125,-1.25 -5.15625,-2.65625 l 2.03125,-2.65625 z m -1.40625,13.75 q -0.3125,1.5625 -1.09375,0.15625 l -1.71875,-2.65625 q 4.6875,-1.71875 8.4375,-4.0625 l 1.5625,2.34375 q -3.75,2.5 -7.1875,4.21875 z m 22.34375,8.59375 0,-2.34375 -15.9375,0 0,2.34375 15.9375,0 z m 0,4.21875 0,-2.34375 -15.9375,0 0,2.34375 15.9375,0 z"
         style=""
         id="path3338" />
      <path
         d="m 190,191.82617 q -1.71875,5.46875 -4.84375,11.09375 0.15625,1.71875 -0.625,0.9375 l -2.96875,-2.8125 q 3.28125,-5 5.78125,-11.40625 L 190,191.82617 Z m 12.34375,4.0625 q -1.25,3.59375 -4.0625,7.1875 l -2.65625,-2.1875 q 2.65625,-3.28125 4.0625,-7.34375 l 3.125,1.5625 q 0.625,0.625 -0.46875,0.78125 z m 13.28125,6.5625 q -3.4375,-3.59375 -5.78125,-7.5 l 2.8125,-1.71875 q 2.96875,4.53125 5.3125,6.40625 l -2.34375,2.8125 z m -14.53125,-16.40625 0,3.28125 10.9375,0 0,-3.28125 -10.9375,0 z m 0,-5.625 0,3.125 10.9375,0 0,-3.125 -10.9375,0 z m 4.21875,11.875 -3.4375,0 -3.4375,0 0,-14.84375 5.46875,0 0.3125,-4.0625 -8.75,0 0,18.125 q 0,7.34375 -4.375,12.96875 l -2.5,-2.8125 q 3.75,-4.6875 3.75,-11.25 l 0,-20 24.6875,0 0,2.96875 -9.0625,0 -1.09375,4.0625 7.8125,0 0,14.84375 -6.25,0 0,9.53125 q 0,2.5 -2.5,2.5 l -2.8125,0 -0.625,-2.96875 2.03125,0 q 0.78125,0 0.78125,-0.9375 l 0,-8.125 z m -20.625,-13.4375 q 3.28125,1.5625 5.625,4.0625 l -2.34375,3.28125 q -2.34375,-2.65625 -5.3125,-4.21875 l 2.03125,-3.125 z m 4.375,-1.71875 q -2.34375,-2.5 -5,-4.0625 l 1.875,-3.125 q 3.125,1.40625 5.15625,3.90625 l -2.03125,3.28125 z"
         style=""
         id="path3340" />
      <path
         d="m 258.75,197.13867 q -1.09375,9.375 -5.3125,5.46875 -3.90625,-3.59375 -5,-16.5625 l -4.53125,0 0,12.8125 4.84375,-1.40625 0.78125,2.65625 -10.3125,3.125 q -0.625,1.5625 -1.09375,0.15625 l -1.09375,-3.28125 3.75,-0.625 0,-27.5 2.8125,0.78125 q 5.15625,-1.40625 9.84375,-3.125 l 2.1875,3.125 q -2.34375,0.625 -4.21875,1.09375 l 0,9.21875 6.25,0 0,2.96875 -6.09375,0 q 0.46875,7.8125 2.96875,12.5 1.09375,2.03125 1.40625,-2.96875 l 2.8125,1.5625 z m -26.09375,-26.40625 q -2.1875,3.59375 -4.6875,7.03125 1.09375,0.9375 2.34375,2.03125 l 4.84375,-6.5625 2.34375,1.5625 q 1.40625,0.78125 -0.3125,0.9375 l -7.8125,9.53125 6.09375,-0.3125 q -0.9375,-1.71875 -1.875,-3.125 l 2.5,-1.25 q 2.5,3.4375 3.75,7.03125 l -2.8125,1.09375 -0.46875,-1.40625 -4.0625,0.3125 0,16.875 -3.125,0 0,-16.5625 -5.78125,0.46875 q -0.3125,1.71875 -1.09375,0 l -0.625,-2.96875 4.0625,-0.15625 2.5,-2.96875 q -2.34375,-2.1875 -5.46875,-4.53125 l 1.71875,-2.5 1.40625,0.9375 q 2.5,-3.75 4.375,-7.8125 l 2.5,1.40625 q 1.40625,0.78125 -0.3125,0.9375 z m 3.59375,19.6875 q 1.5625,2.96875 2.03125,6.875 l -2.96875,0.78125 q -0.46875,-3.90625 -1.71875,-6.875 l 2.65625,-0.78125 z m 12.03125,-7.34375 0,-8.59375 q -2.34375,0.625 -4.375,0.9375 l 0,7.65625 4.375,0 z m -20.78125,9.375 q -0.3125,4.375 -2.1875,9.53125 l -2.96875,-1.25 q 1.875,-5 2.5,-10 l 2.8125,0.78125 q 1.25,0.3125 -0.15625,0.9375 z"
         style=""
         id="path3342" />
    </g>
  </g>
</svg>
