<?xml version="1.0" encoding="UTF-8" standalone="no"?>
<!-- Created with Inkscape (http://www.inkscape.org/) -->

<svg
   xmlns:dc="http://purl.org/dc/elements/1.1/"
   xmlns:cc="http://creativecommons.org/ns#"
   xmlns:rdf="http://www.w3.org/1999/02/22-rdf-syntax-ns#"
   xmlns:svg="http://www.w3.org/2000/svg"
   xmlns="http://www.w3.org/2000/svg"
   xmlns:sodipodi="http://sodipodi.sourceforge.net/DTD/sodipodi-0.dtd"
   xmlns:inkscape="http://www.inkscape.org/namespaces/inkscape"
   width="25.135416mm"
   height="8.4682293mm"
   viewBox="0 0 89.062499 30.005536"
   id="svg2"
   version="1.1"
   inkscape:version="0.91 r13725"
   sodipodi:docname="shigenshi.svg">
  <defs
     id="defs4" />
  <sodipodi:namedview
     id="base"
     pagecolor="#ffffff"
     bordercolor="#666666"
     borderopacity="1.0"
     inkscape:pageopacity="0.0"
     inkscape:pageshadow="2"
     inkscape:zoom="1.979899"
     inkscape:cx="-79.677894"
     inkscape:cy="70.347431"
     inkscape:document-units="px"
     inkscape:current-layer="layer1"
     showgrid="false"
     inkscape:window-width="1366"
     inkscape:window-height="706"
     inkscape:window-x="-8"
     inkscape:window-y="-8"
     inkscape:window-maximized="1"
     fit-margin-top="0.2"
     fit-margin-left="0"
     fit-margin-right="0"
     fit-margin-bottom="0" />
  <metadata
     id="metadata7">
    <rdf:RDF>
      <cc:Work
         rdf:about="">
        <dc:format>image/svg+xml</dc:format>
        <dc:type
           rdf:resource="http://purl.org/dc/dcmitype/StillImage" />
        <dc:title></dc:title>
      </cc:Work>
    </rdf:RDF>
  </metadata>
  <g
     inkscape:label="レイヤー 1"
     inkscape:groupmode="layer"
     id="layer1"
     transform="translate(-269.04019,-694.67812)">
    <flowRoot
       xml:space="preserve"
       id="flowRoot3350"
       style="font-style:normal;font-variant:normal;font-weight:normal;font-stretch:normal;font-size:30px;line-height:125%;font-family:sans-serif;-inkscape-font-specification:'sans-serif, Normal';text-align:start;letter-spacing:0px;word-spacing:0px;writing-mode:lr-tb;text-anchor:start;fill:#000000;fill-opacity:1;stroke:none;stroke-width:1px;stroke-linecap:butt;stroke-linejoin:miter;stroke-opacity:1"><flowRegion
         id="flowRegion3352"><rect
           id="rect3354"
           width="497.14285"
           height="137.14285"
           x="134.28572"
           y="300.93362"
           style="font-size:30px" /></flowRegion><flowPara
         id="flowPara3356" /></flowRoot>    <flowRoot
       xml:space="preserve"
       id="flowRoot3358"
       style="font-style:normal;font-variant:normal;font-weight:normal;font-stretch:normal;font-size:30px;line-height:125%;font-family:sans-serif;-inkscape-font-specification:'sans-serif, Normal';text-align:start;letter-spacing:0px;word-spacing:0px;writing-mode:lr-tb;text-anchor:start;fill:#000000;fill-opacity:1;stroke:none;stroke-width:1px;stroke-linecap:butt;stroke-linejoin:miter;stroke-opacity:1"><flowRegion
         id="flowRegion3360"><rect
           id="rect3362"
           width="242.85715"
           height="94.285713"
           x="211.42857"
           y="306.64792"
           style="font-size:30px" /></flowRegion><flowPara
         id="flowPara3364" /></flowRoot>    <g
       style="font-style:normal;font-variant:normal;font-weight:normal;font-stretch:normal;font-size:30px;line-height:125%;font-family:HGPSoeiKakupoptai;-inkscape-font-specification:'HGPSoeiKakupoptai, Normal';text-align:start;letter-spacing:0px;word-spacing:0px;writing-mode:lr-tb;text-anchor:start;fill:#000000;fill-opacity:1;stroke:none;stroke-width:1px;stroke-linecap:butt;stroke-linejoin:miter;stroke-opacity:1"
       id="text3366">
      <path
         d="m 274.89957,701.12897 3.51562,2.57812 -4.33594,3.51563 8.78907,-0.46875 -2.57813,-1.05469 5.15625,-5.50781 -1.05469,-0.11719 -3.28125,2.92969 -3.98437,-2.46094 6.44531,-4.6875 2.57813,1.17187 q 5.27343,-0.46875 8.08593,-0.35156 2.57813,0.11719 3.28125,1.52344 0.58594,1.05469 -0.35156,2.8125 -0.46875,0.9375 -1.52344,2.34375 l -4.6875,-1.64063 1.40625,-1.99218 -6.5625,0.46875 3.98438,1.28906 -0.46875,0.58594 8.4375,2.69531 -1.99219,3.51562 -3.16406,-1.28906 q 1.17187,0.9375 1.52344,1.64063 0.58593,1.05468 0.82031,4.45312 l 0.35156,5.85938 -1.40625,0.11718 4.21875,2.10938 -3.98437,3.16406 -8.67188,-3.04687 3.04688,-2.34375 -9.14063,0.46875 2.92969,1.875 -7.73438,3.39843 -5.39062,-2.46093 3.98437,-2.10938 -1.52343,0.11719 2.34375,-12.89063 -1.64063,1.52344 -3.28125,-3.28125 5.85938,-4.45312 z m -3.28125,-0.58594 q -0.70313,-0.70313 -0.9375,-1.75781 -0.23438,-1.64063 0.82031,-2.46094 0.82031,-0.58594 2.10937,-0.58594 1.28907,0.11719 2.22657,0.9375 0.9375,0.9375 0.82031,2.10938 -0.11719,0.9375 -1.05469,1.75781 -0.82031,0.70312 -1.875,0.70312 -1.28906,0.11719 -2.10937,-0.70312 z m 17.34375,15.9375 0,-1.28906 -10.19532,0.70312 0,1.05469 10.19532,-0.46875 z m 0,-3.28125 -0.11719,-1.05469 -10.07813,0.46875 0,1.05469 10.19532,-0.46875 z m -0.11719,-3.28125 -0.11719,-1.05469 -9.375,0.23438 -0.11719,1.05468 9.60938,-0.23437 z m 2.10937,-3.28125 0,-0.11719 -4.45312,-1.40625 -1.40625,1.64063 5.85937,-0.11719 z"
         style=""
         id="path3344" />
      <path
         d="m 300.21207,709.09772 q -1.05469,-0.9375 -1.17188,-2.34375 -0.11719,-1.28907 0.46875,-2.10938 0.82031,-1.28906 2.34375,-1.28906 1.17188,0 1.99219,0.58594 1.05469,0.70312 1.28906,1.875 0.35156,1.40625 -0.35156,2.57812 -0.70313,1.28906 -2.22656,1.40625 -1.40625,0.11719 -2.34375,-0.70312 z m 1.40625,2.10937 4.10156,0.9375 1.17187,-15.82031 20.97657,-0.35156 -0.11719,3.51562 -5.74219,0.11719 -0.35156,2.10937 q 2.8125,-0.11718 4.10156,0.70313 1.40625,0.82031 1.52344,3.16406 l 0.35156,7.73438 -5.39062,0.11718 0.11718,3.28125 q 0.9375,-1.40625 1.99219,-1.64062 1.28906,-0.23438 2.22656,0.46875 1.17188,0.82031 1.40625,2.10937 0.23438,1.40625 -0.46875,2.46094 -0.82031,1.17188 -2.10937,1.28906 -0.9375,0.11719 -1.75781,-0.35156 -0.82032,-0.35156 -1.28907,-1.28906 0.11719,2.34375 -0.46875,3.16406 -0.9375,1.52344 -3.04687,1.52344 l -3.16406,0 -1.52344,-3.16406 -0.58594,1.75781 -3.28125,-2.22656 0,3.51562 -4.92187,-0.23437 0.23437,-10.66407 -2.10937,11.01563 -4.21875,-1.52344 2.34375,-11.71875 z m 0.9375,-9.49219 q -1.99219,-0.70312 -2.34375,-2.34375 -0.46875,-1.75781 0.82031,-2.69531 1.64062,-1.17187 3.63281,-0.46875 1.17188,0.82031 1.40625,2.10938 0.35156,1.75781 -0.70312,2.8125 -1.17188,1.17187 -2.8125,0.58593 z m 10.3125,12.53907 3.86718,1.64062 -2.22656,4.45313 2.92969,0 0.11719,-6.67969 -6.44532,0.70312 -0.11718,-0.11718 0.58593,-12.07032 5.27344,-0.35156 0.35156,-1.875 -6.09375,0.35156 -0.70312,12.53907 -0.11719,6.21093 2.57813,-4.80468 z m 9.60937,-3.86719 -0.11719,-1.75781 -6.44531,0.35156 0.11719,1.64062 6.44531,-0.23437 z m -0.35156,-4.45313 0.23437,-0.11718 -0.11718,-1.28907 -6.09375,0.23438 -0.11719,1.40625 6.09375,-0.23438 z"
         style=""
         id="path3346" />
      <path
         d="m 331.61832,698.08209 q 1.40625,-1.05469 3.86718,-2.57812 l 3.04688,2.34375 0,0.23437 -3.86719,3.51563 0.58594,0.46875 3.86719,-3.75 3.16406,2.46093 -7.96875,7.61719 3.28125,-0.35156 -0.46875,-2.10938 3.39844,-0.70312 1.40625,4.21875 0.58593,-9.14063 -1.05468,-1.05468 12.07031,-3.86719 4.10156,2.92969 -4.57031,1.40625 0,6.21093 4.80469,-0.11718 0,3.86718 -4.45313,0.11719 0.9375,8.20313 1.52344,-1.52344 2.22656,4.33594 q -0.70312,0.9375 -1.64062,2.10937 -1.05469,1.28906 -2.34375,1.52344 -1.64063,0.35156 -2.69532,-1.05469 -0.46875,-0.70312 -1.05468,-2.34375 l -4.45313,2.57813 q -1.64062,0.9375 -2.92969,0 -1.52343,-1.17188 -1.40625,-3.28125 l 0.11719,-2.8125 q -0.9375,1.28906 -1.875,1.52343 -1.05469,0.23438 -2.57812,-0.9375 l 0.11718,6.21094 -4.57031,0 0.58594,-11.83594 q -1.875,0.35157 -2.69531,0 -0.82032,-0.35156 -1.28907,-1.17187 -0.58593,-1.05469 -0.35156,-1.99219 0.23438,-0.9375 1.17188,-2.10937 0.58593,-0.70313 2.10937,-2.10938 -0.82031,-0.58594 -1.75781,-1.28906 -1.40625,-1.17188 -1.52344,-2.10938 -0.11719,-0.70312 0.46875,-1.52343 0.58594,-0.82032 2.10938,-2.10938 z m -2.46094,15.35156 3.51562,0.11719 -0.11718,8.4375 -3.51563,-0.23437 0.11719,-8.32032 z m 10.89844,0.35157 q 0.9375,0.35156 1.75781,1.875 l 0.11719,-3.39844 -3.16407,0.82031 -0.35156,-1.28906 -1.05469,0.11719 -0.11718,2.34375 q 1.52343,-0.9375 2.8125,-0.46875 z m 9.49218,1.75781 -0.46875,-5.15625 -2.46093,0.23437 -0.11719,7.03125 3.04687,-2.10937 z m -0.58593,-9.49219 -0.11719,-4.92187 -1.75781,0.58593 -0.35157,4.45313 2.22657,-0.11719 z"
         style=""
         id="path3348" />
    </g>
  </g>
</svg>
