<?xml version="1.0" encoding="utf-8"?>
<!-- Generator: Adobe Illustrator 19.1.0, SVG Export Plug-In . SVG Version: 6.00 Build 0)  -->
<svg version="1.1" id="レイヤー_1" xmlns="http://www.w3.org/2000/svg" xmlns:xlink="http://www.w3.org/1999/xlink" x="0px"
	 y="0px" viewBox="0 0 47.2 11.1" style="enable-background:new 0 0 47.2 11.1;" xml:space="preserve">
<g>
	<path d="M2.9,5.6C3.3,6,4.4,7.2,4.7,7.6L4.2,8.2C3.9,7.8,3.4,7.1,2.9,6.5v4.6H2.1V6.3C1.7,7.6,1,8.8,0.4,9.5C0.3,9.3,0.1,9,0,8.8
		C0.7,7.9,1.5,6.3,2,5H0.2V4.2h2V0l1,0.1c0,0.1-0.1,0.1-0.2,0.2v4h1.8V5H2.9V5.6z M0.8,0.9c0.4,0.8,0.7,1.9,0.7,2.6L0.9,3.6
		c0-0.7-0.3-1.8-0.7-2.6L0.8,0.9z M5,1c0,0.1-0.1,0.1-0.3,0.1C4.5,1.9,4.1,3,3.8,3.7c-0.1,0-0.4-0.2-0.6-0.2
		c0.3-0.7,0.7-1.9,0.9-2.7L5,1z M10.3,10h0.9v0.8H4.1V10h1.3V0.6h5V10z M9.5,1.3H6.2v2.4h3.4V1.3z M9.5,6.8V4.5H6.2v2.4H9.5z
		 M6.2,7.6V10h3.4V7.6H6.2z"/>
	<path d="M23,4.4h-4.7c0.8,2.9,2.3,5.1,4.9,6c-0.2,0.2-0.5,0.5-0.6,0.8c-2.5-1-4-3.2-4.9-6c-0.6,2.4-1.9,4.7-5,6.1
		c-0.1-0.2-0.4-0.5-0.6-0.7c3.2-1.3,4.4-3.7,4.8-6.1h-4.6V3.5h4.8c0.2-1.2,0.1-2.5,0.2-3.5l1.1,0.1c0,0.1-0.1,0.2-0.3,0.2
		c0,0.9,0,2.1-0.2,3.3H23V4.4z"/>
	<path d="M33.6,9.9c-1.1,0.2-2.5,0.3-3.7,0.3c-1,0-1.8-0.1-2.3-0.2c-1.5-0.3-2.1-1.2-2.1-2.3c0-0.9,0.5-1.8,1.2-2.6l0.7,0.4
		c-0.7,0.7-1.1,1.5-1.1,2.1c0,0.7,0.5,1.3,1.5,1.6c0.4,0.1,1.1,0.1,1.9,0.1c1.2,0,2.6-0.1,3.7-0.3L33.6,9.9z M28.2,3.9
		c0.6-0.5,1.5-1.1,2.1-1.4v0c-0.9,0.1-3,0.1-4.3,0.1c0-0.2,0-0.6,0-0.8h0.6c1.5,0,4.7,0,6.2-0.4l0.1,0.9c-0.4,0.1-0.7,0.1-1.3,0.4
		c-0.7,0.3-1.8,0.9-2.8,1.7L28.2,3.9z M33.6,5.6C33.2,5.1,32.5,4.3,32,4l0.4-0.4C32.9,4,33.6,4.7,34,5.2L33.6,5.6z M34.8,4.4
		c-0.3-0.5-1-1.2-1.6-1.6l0.4-0.4c0.6,0.4,1.3,1.1,1.6,1.6L34.8,4.4z"/>
	<path d="M46.1,3.5c0,0.1-0.2,0.2-0.3,0.2c-0.1,0.8-0.3,1.7-0.5,2.4c0.6,0.3,1.3,0.6,2,0.9l-0.4,0.8c-0.6-0.3-1.3-0.6-1.9-0.9
		c-0.6,1.7-1.4,3-2.7,3.8c-0.2-0.2-0.5-0.4-0.7-0.5c1.3-0.8,2-2,2.6-3.7c-1.2-0.5-2.3-0.8-3.2-0.9c-0.8,3-1.6,3.8-3,3.8
		s-1.7-1.2-1.7-1.9c0-1.9,1.9-2.7,4.1-2.7c0.3-1,0.5-2.1,0.6-3.4c-0.6,0-2.5,0.2-3.4,0.2c0,0.1-0.1,0.1-0.3,0.2l-0.1-1
		c1,0,3.3-0.2,4-0.3c0.1,0,0.2-0.1,0.3-0.1L42.2,1c-0.1,0.1-0.2,0.1-0.3,0.2c-0.2,1.3-0.5,2.7-0.7,3.7c0.9,0.1,2,0.4,3.2,0.9
		c0.2-0.7,0.4-1.6,0.5-2.6L46.1,3.5z M40.1,5.7c-1.7,0-3.1,0.7-3.1,2c0,0.7,0.3,1.1,0.9,1.1C38.8,8.8,39.3,8.5,40.1,5.7z"/>
</g>
</svg>
